<svg width="1455" height="1055" fill="none" xmlns="http://www.w3.org/2000/svg"><g filter="url(#a)"><g filter="url(#b)"><path d="m264.686 175.686 26.769 7.173-19.596 19.596-7.173-26.769Z" fill="#fff"/></g><g filter="url(#c)"><path d="m697.85 213.534 1.612 19.853-17.999-8.53 16.387-11.323Z" fill="#fff"/></g><g filter="url(#d)"><path d="m529.109 815.703 23.943 4.394-15.778 18.538-8.165-22.932Z" fill="#fff"/></g><g filter="url(#e)"><path d="m1390.24 69.595.31 19.916-17.41-9.69 17.1-10.226Z" fill="#fff"/></g><g filter="url(#f)"><path d="m945.655 932.613.476 30.661-26.791-14.919 26.315-15.742Z" fill="#fff"/></g><g filter="url(#g)"><path d="m785.136 598.186 12.338 32.407-34.234-5.519 21.896-26.888Z" fill="#fff"/></g><g filter="url(#h)"><path d="m114.568 746.179-21.424 32.793-17.687-34.951 39.111 2.158Z" fill="#fff"/></g><g filter="url(#i)"><path d="m1065.54 131.55-28.19 43.146-23.27-45.986 51.46 2.84Z" fill="#F5F5F5"/></g><g filter="url(#j)"><path d="m630.057 846.821 40.807-1.446-19.151 36.063-21.656-34.617Z" fill="#fff"/></g><g filter="url(#k)"><path d="m948.707 287.486 24.601 13.214-23.744 14.698-.857-27.912Z" fill="#fff"/></g><g filter="url(#l)"><path d="m347.394 904.224-32.606 41.295-19.46-48.885 52.066 7.59Z" fill="#fff"/></g><g filter="url(#m)"><path d="m1132.9 391.041-43.42 12.282 11.08-43.743 32.34 31.461Z" fill="#fff"/></g><g filter="url(#n)"><path d="m457.864 644.888-9.674 27.81-19.247-22.284 28.921-5.526Z" fill="#fff"/></g><g filter="url(#o)"><path d="m1376.76 724.757-29.47 8.593 7.29-29.824 22.18 21.231Z" fill="#fff"/></g><g filter="url(#p)"><path d="m401.203 86.63 6.838 34.46-33.262-11.308 26.424-23.152Z" fill="#fff"/></g><g filter="url(#q)"><path d="m570.632 57.104-30.675 1.326 14.189-27.228 16.486 25.902Z" fill="#fff"/></g><g filter="url(#r)"><path d="m409.367 492.368 19.24 5.156-14.084 14.084-5.156-19.24Z" fill="#fff"/></g><g filter="url(#s)"><path d="m159.234 951.114 23.031-17.767 3.871 28.829-26.902-11.062Z" fill="#fff"/></g><g filter="url(#t)"><path d="m102.269 143.307-4.1 21.676-16.722-14.388 20.822-7.288Z" fill="#fff"/></g><g filter="url(#u)"><path d="m318.6 398.913 33.345 19.951-33.951 18.901.606-38.852Z" fill="#fff"/></g><g filter="url(#v)"><path d="m811.25 362.777 34.273 4.71-21.216 27.326-13.057-32.036Z" fill="#fff"/></g><g filter="url(#w)"><path d="m1264.6 629.814 17.16 36.021-39.78-3.142 22.62-32.879Z" fill="#fff"/></g><g filter="url(#x)"><path d="m1386.6 937.831 27.92 35.089-44.34 6.635 16.42-41.724Z" fill="#fff"/></g><g filter="url(#y)"><path d="M390.657 302.314c5.886 0 10.658-4.771 10.658-10.657S396.543 281 390.657 281c-5.886 0-10.657 4.771-10.657 10.657s4.771 10.657 10.657 10.657Z" fill="#fff"/></g><g filter="url(#z)"><path d="M579.657 378.314a7.658 7.658 0 1 0 0-15.315 7.658 7.658 0 0 0 0 15.315Z" fill="#fff"/></g><g filter="url(#A)"><path d="M1083.5 906c7.46 0 13.5-6.044 13.5-13.5s-6.04-13.5-13.5-13.5-13.5 6.044-13.5 13.5 6.04 13.5 13.5 13.5Z" fill="#fff"/></g><g filter="url(#B)"><path d="M1400 363c5.52 0 10-4.477 10-10s-4.48-10-10-10-10 4.477-10 10 4.48 10 10 10Z" fill="#fff"/></g><g filter="url(#C)"><path d="M183.5 305a6.5 6.5 0 1 0 0-13 6.5 6.5 0 0 0 0 13Z" fill="#fff"/></g><g filter="url(#D)"><path d="M1105.5 721c4.69 0 8.5-3.806 8.5-8.5s-3.81-8.5-8.5-8.5c-4.69 0-8.5 3.806-8.5 8.5s3.81 8.5 8.5 8.5Z" fill="#fff"/></g><g filter="url(#E)"><path d="M1204 115c6.63 0 12-5.373 12-12s-5.37-12-12-12-12 5.373-12 12 5.37 12 12 12Z" fill="#fff"/></g><g filter="url(#F)"><path d="M752 929a7 7 0 1 0 0-14 7 7 0 0 0 0 14Z" fill="#fff"/></g><g filter="url(#G)"><path d="M929.5 693a5.5 5.5 0 1 0 0-11 5.5 5.5 0 1 0 0 11Z" fill="#fff"/></g><g filter="url(#H)"><path d="M1255.5 460c3.04 0 5.5-2.462 5.5-5.5s-2.46-5.5-5.5-5.5-5.5 2.462-5.5 5.5 2.46 5.5 5.5 5.5Z" fill="#fff"/></g><g filter="url(#I)"><path d="M353.5 611a5.5 5.5 0 1 0 0-11 5.5 5.5 0 1 0 0 11Z" fill="#fff"/></g><g filter="url(#J)"><path d="M264.5 761a7.5 7.5 0 1 0 0-15 7.5 7.5 0 0 0 0 15Z" fill="#fff"/></g><g filter="url(#K)"><path d="M808 141a9 9 0 0 0 9-9 9 9 0 0 0-9-9 9 9 0 0 0-9 9 9 9 0 0 0 9 9Z" fill="#fff"/></g><g filter="url(#L)"><path d="M1121 574c3.31 0 6-2.686 6-6s-2.69-6-6-6-6 2.686-6 6 2.69 6 6 6Z" fill="#fff"/></g><g filter="url(#M)"><path d="M115 455c5.523 0 10-4.477 10-10s-4.477-10-10-10-10 4.477-10 10 4.477 10 10 10Z" fill="#fff"/></g><g filter="url(#N)"><path fill-rule="evenodd" clip-rule="evenodd" d="M514.093 148.795 530.887 132l6.298 6.298-16.794 16.795-6.298-6.298Zm-5.249 40.937 16.795-16.795-17.844-17.844 6.298-6.298 24.142 24.142-6.298 6.298-16.795 16.795-6.298-6.298Z" fill="#fff"/></g><g filter="url(#O)"><path fill-rule="evenodd" clip-rule="evenodd" d="m611.179 646.354 17.315 16.258-6.097 6.493-17.315-16.257 6.097-6.494Zm-41.082-3.957 17.315 16.258 17.273-18.397 6.494 6.096-23.371 24.891-6.493-6.097L564 648.89l6.097-6.493Z" fill="#fff"/></g><g filter="url(#P)"><path fill-rule="evenodd" clip-rule="evenodd" d="m1280.44 898.339-11.85 20.583-7.72-4.445 11.85-20.583 7.72 4.445Zm-5.57-40.894-11.85 20.582 21.86 12.594-4.44 7.718-29.59-17.038 4.45-7.718L1267.15 853l7.72 4.445Z" fill="#fff"/></g><g filter="url(#Q)"><path fill-rule="evenodd" clip-rule="evenodd" d="M674.876 436.64 663 416.071l7.713-4.453 11.876 20.569-7.713 4.453Zm38.183 15.665-11.875-20.569-21.855 12.618-4.453-7.714 29.568-17.071 4.453 7.714 11.876 20.569-7.714 4.453Z" fill="#fff"/></g><g filter="url(#R)"><path fill-rule="evenodd" clip-rule="evenodd" d="m434.1 900.751.072-23.751 8.907.027-.073 23.751-8.906-.027Zm25.136 32.735.072-23.751-25.236-.077.028-8.907 34.142.104-.027 8.907-.073 23.751-8.906-.027Z" fill="#fff"/></g><g filter="url(#S)"><path fill-rule="evenodd" clip-rule="evenodd" d="m1312.13 243.382-6.15 22.942-8.6-2.305 6.14-22.942 8.61 2.305Zm-15.93-38.077-6.14 22.942 24.37 6.532-2.3 8.603-32.98-8.837 2.3-8.603L1287.6 203l8.6 2.305Z" fill="#fff"/></g><g filter="url(#T)"><path fill-rule="evenodd" clip-rule="evenodd" d="m892.706 795.232 23.444 3.804-1.427 8.792-23.444-3.805 1.427-8.791Zm-36.279 19.678 23.444 3.805 4.043-24.91 8.792 1.427-5.47 33.701-8.791-1.427L855 823.702l1.427-8.792Z" fill="#fff"/></g><g filter="url(#U)"><path fill-rule="evenodd" clip-rule="evenodd" d="m186.639 640.897-20.569 11.876-4.453-7.713 20.569-11.876 4.453 7.713Zm15.665-38.183-20.569 11.875 12.618 21.855-7.714 4.453-17.071-29.568 7.714-4.453L197.851 595l4.453 7.714Z" fill="#fff"/></g><g filter="url(#V)"><path fill-rule="evenodd" clip-rule="evenodd" d="m210.895 98.835-20.819-11.43 4.286-7.808 20.82 11.431-4.287 7.807Zm40.773-6.403-20.82-11.43-12.145 22.12-7.808-4.287 16.432-29.928 7.808 4.287 20.819 11.43-4.286 7.808Z" fill="#fff"/></g><g filter="url(#W)"><path fill-rule="evenodd" clip-rule="evenodd" d="m951.143 543.37-22.268 8.262-3.098-8.351 22.268-8.261 3.098 8.35Zm21.841-35.019-22.268 8.261 8.778 23.66-8.351 3.098-11.876-32.01 8.351-3.098L969.886 500l3.098 8.351Z" fill="#fff"/></g><g filter="url(#X)"><path fill-rule="evenodd" clip-rule="evenodd" d="m938.839 95.252-23.011-5.884 2.206-8.63 23.011 5.884-2.206 8.63Zm37.891-16.36-23.011-5.883-6.251 24.449-8.629-2.206 8.458-33.079 8.629 2.207 23.011 5.883-2.207 8.63Z" fill="#fff"/></g><g filter="url(#Y)"><path fill-rule="evenodd" clip-rule="evenodd" d="M1368.22 545.931 1356 525.563l7.64-4.581 12.22 20.367-7.64 4.582Zm38.44 15.024-12.22-20.368-21.64 12.982-4.58-7.638 29.28-17.563 4.58 7.638 12.22 20.367-7.64 4.582Z" fill="#fff"/></g></g><defs><filter id="a" x=".457" y="31.202" width="1414.06" height="1023.35" filterUnits="userSpaceOnUse" color-interpolation-filters="sRGB"><feFlood flood-opacity="0" result="BackgroundImageFix"/><feColorMatrix in="SourceAlpha" values="0 0 0 0 0 0 0 0 0 0 0 0 0 0 0 0 0 0 127 0" result="hardAlpha"/><feOffset dx="-50" dy="50"/><feGaussianBlur stdDeviation="12.5"/><feColorMatrix values="0 0 0 0 0 0 0 0 0 0 0 0 0 0 0 0 0 0 0.15 0"/><feBlend in2="BackgroundImageFix" result="effect1_dropShadow_282_331"/><feBlend in="SourceGraphic" in2="effect1_dropShadow_282_331" result="shape"/></filter><filter id="b" x="249.802" y="166.756" width="41.653" height="35.699" filterUnits="userSpaceOnUse" color-interpolation-filters="sRGB"><feFlood flood-opacity="0" result="BackgroundImageFix"/><feColorMatrix in="SourceAlpha" values="0 0 0 0 0 0 0 0 0 0 0 0 0 0 0 0 0 0 127 0" result="hardAlpha"/><feOffset dx="-13.395" dy="-7.442"/><feGaussianBlur stdDeviation=".744"/><feColorMatrix values="0 0 0 0 0 0 0 0 0 0 0 0 0 0 0 0 0 0 0.25 0"/><feBlend in2="BackgroundImageFix" result="effect1_dropShadow_282_331"/><feBlend in="SourceGraphic" in2="effect1_dropShadow_282_331" result="shape"/></filter><filter id="c" x="670.765" y="207.116" width="28.696" height="26.272" filterUnits="userSpaceOnUse" color-interpolation-filters="sRGB"><feFlood flood-opacity="0" result="BackgroundImageFix"/><feColorMatrix in="SourceAlpha" values="0 0 0 0 0 0 0 0 0 0 0 0 0 0 0 0 0 0 127 0" result="hardAlpha"/><feOffset dx="-9.628" dy="-5.349"/><feGaussianBlur stdDeviation=".535"/><feColorMatrix values="0 0 0 0 0 0 0 0 0 0 0 0 0 0 0 0 0 0 0.25 0"/><feBlend in2="BackgroundImageFix" result="effect1_dropShadow_282_331"/><feBlend in="SourceGraphic" in2="effect1_dropShadow_282_331" result="shape"/></filter><filter id="d" x="516.036" y="807.859" width="37.017" height="30.776" filterUnits="userSpaceOnUse" color-interpolation-filters="sRGB"><feFlood flood-opacity="0" result="BackgroundImageFix"/><feColorMatrix in="SourceAlpha" values="0 0 0 0 0 0 0 0 0 0 0 0 0 0 0 0 0 0 127 0" result="hardAlpha"/><feOffset dx="-11.766" dy="-6.537"/><feGaussianBlur stdDeviation=".654"/><feColorMatrix values="0 0 0 0 0 0 0 0 0 0 0 0 0 0 0 0 0 0 0.25 0"/><feBlend in2="BackgroundImageFix" result="effect1_dropShadow_282_331"/><feBlend in="SourceGraphic" in2="effect1_dropShadow_282_331" result="shape"/></filter><filter id="e" x="1362.44" y="63.177" width="28.108" height="26.335" filterUnits="userSpaceOnUse" color-interpolation-filters="sRGB"><feFlood flood-opacity="0" result="BackgroundImageFix"/><feColorMatrix in="SourceAlpha" values="0 0 0 0 0 0 0 0 0 0 0 0 0 0 0 0 0 0 127 0" result="hardAlpha"/><feOffset dx="-9.628" dy="-5.349"/><feGaussianBlur stdDeviation=".535"/><feColorMatrix values="0 0 0 0 0 0 0 0 0 0 0 0 0 0 0 0 0 0 0.25 0"/><feBlend in2="BackgroundImageFix" result="effect1_dropShadow_282_331"/><feBlend in="SourceGraphic" in2="effect1_dropShadow_282_331" result="shape"/></filter><filter id="f" x="902.871" y="922.732" width="43.262" height="40.542" filterUnits="userSpaceOnUse" color-interpolation-filters="sRGB"><feFlood flood-opacity="0" result="BackgroundImageFix"/><feColorMatrix in="SourceAlpha" values="0 0 0 0 0 0 0 0 0 0 0 0 0 0 0 0 0 0 127 0" result="hardAlpha"/><feOffset dx="-14.822" dy="-8.234"/><feGaussianBlur stdDeviation=".823"/><feColorMatrix values="0 0 0 0 0 0 0 0 0 0 0 0 0 0 0 0 0 0 0.25 0"/><feBlend in2="BackgroundImageFix" result="effect1_dropShadow_282_331"/><feBlend in="SourceGraphic" in2="effect1_dropShadow_282_331" result="shape"/></filter><filter id="g" x="744.617" y="587.012" width="52.856" height="43.581" filterUnits="userSpaceOnUse" color-interpolation-filters="sRGB"><feFlood flood-opacity="0" result="BackgroundImageFix"/><feColorMatrix in="SourceAlpha" values="0 0 0 0 0 0 0 0 0 0 0 0 0 0 0 0 0 0 127 0" result="hardAlpha"/><feOffset dx="-16.761" dy="-9.312"/><feGaussianBlur stdDeviation=".931"/><feColorMatrix values="0 0 0 0 0 0 0 0 0 0 0 0 0 0 0 0 0 0 0.25 0"/><feBlend in2="BackgroundImageFix" result="effect1_dropShadow_282_331"/><feBlend in="SourceGraphic" in2="effect1_dropShadow_282_331" result="shape"/></filter><filter id="h" x="54.419" y="731.398" width="60.149" height="47.574" filterUnits="userSpaceOnUse" color-interpolation-filters="sRGB"><feFlood flood-opacity="0" result="BackgroundImageFix"/><feColorMatrix in="SourceAlpha" values="0 0 0 0 0 0 0 0 0 0 0 0 0 0 0 0 0 0 127 0" result="hardAlpha"/><feOffset dx="-18.934" dy="-10.519"/><feGaussianBlur stdDeviation="1.052"/><feColorMatrix values="0 0 0 0 0 0 0 0 0 0 0 0 0 0 0 0 0 0 0.25 0"/><feBlend in2="BackgroundImageFix" result="effect1_dropShadow_282_331"/><feBlend in="SourceGraphic" in2="effect1_dropShadow_282_331" result="shape"/></filter><filter id="i" x="986.398" y="112.102" width="79.141" height="62.594" filterUnits="userSpaceOnUse" color-interpolation-filters="sRGB"><feFlood flood-opacity="0" result="BackgroundImageFix"/><feColorMatrix in="SourceAlpha" values="0 0 0 0 0 0 0 0 0 0 0 0 0 0 0 0 0 0 127 0" result="hardAlpha"/><feOffset dx="-24.912" dy="-13.84"/><feGaussianBlur stdDeviation="1.384"/><feColorMatrix values="0 0 0 0 0 0 0 0 0 0 0 0 0 0 0 0 0 0 0.25 0"/><feBlend in2="BackgroundImageFix" result="effect1_dropShadow_282_331"/><feBlend in="SourceGraphic" in2="effect1_dropShadow_282_331" result="shape"/></filter><filter id="j" x="608.127" y="832.217" width="62.737" height="49.221" filterUnits="userSpaceOnUse" color-interpolation-filters="sRGB"><feFlood flood-opacity="0" result="BackgroundImageFix"/><feColorMatrix in="SourceAlpha" values="0 0 0 0 0 0 0 0 0 0 0 0 0 0 0 0 0 0 127 0" result="hardAlpha"/><feOffset dx="-19.737" dy="-10.965"/><feGaussianBlur stdDeviation="1.097"/><feColorMatrix values="0 0 0 0 0 0 0 0 0 0 0 0 0 0 0 0 0 0 0.25 0"/><feBlend in2="BackgroundImageFix" result="effect1_dropShadow_282_331"/><feBlend in="SourceGraphic" in2="effect1_dropShadow_282_331" result="shape"/></filter><filter id="k" x="933.709" y="278.487" width="39.599" height="36.911" filterUnits="userSpaceOnUse" color-interpolation-filters="sRGB"><feFlood flood-opacity="0" result="BackgroundImageFix"/><feColorMatrix in="SourceAlpha" values="0 0 0 0 0 0 0 0 0 0 0 0 0 0 0 0 0 0 127 0" result="hardAlpha"/><feOffset dx="-13.498" dy="-7.499"/><feGaussianBlur stdDeviation=".75"/><feColorMatrix values="0 0 0 0 0 0 0 0 0 0 0 0 0 0 0 0 0 0 0.25 0"/><feBlend in2="BackgroundImageFix" result="effect1_dropShadow_282_331"/><feBlend in="SourceGraphic" in2="effect1_dropShadow_282_331" result="shape"/></filter><filter id="l" x="267.07" y="879.679" width="80.325" height="65.84" filterUnits="userSpaceOnUse" color-interpolation-filters="sRGB"><feFlood flood-opacity="0" result="BackgroundImageFix"/><feColorMatrix in="SourceAlpha" values="0 0 0 0 0 0 0 0 0 0 0 0 0 0 0 0 0 0 127 0" result="hardAlpha"/><feOffset dx="-25.433" dy="-14.129"/><feGaussianBlur stdDeviation="1.413"/><feColorMatrix values="0 0 0 0 0 0 0 0 0 0 0 0 0 0 0 0 0 0 0.25 0"/><feBlend in2="BackgroundImageFix" result="effect1_dropShadow_282_331"/><feBlend in="SourceGraphic" in2="effect1_dropShadow_282_331" result="shape"/></filter><filter id="m" x="1065.25" y="345.04" width="67.656" height="58.284" filterUnits="userSpaceOnUse" color-interpolation-filters="sRGB"><feFlood flood-opacity="0" result="BackgroundImageFix"/><feColorMatrix in="SourceAlpha" values="0 0 0 0 0 0 0 0 0 0 0 0 0 0 0 0 0 0 127 0" result="hardAlpha"/><feOffset dx="-21.811" dy="-12.117"/><feGaussianBlur stdDeviation="1.212"/><feColorMatrix values="0 0 0 0 0 0 0 0 0 0 0 0 0 0 0 0 0 0 0.25 0"/><feBlend in2="BackgroundImageFix" result="effect1_dropShadow_282_331"/><feBlend in="SourceGraphic" in2="effect1_dropShadow_282_331" result="shape"/></filter><filter id="n" x="413.129" y="635.4" width="44.736" height="37.298" filterUnits="userSpaceOnUse" color-interpolation-filters="sRGB"><feFlood flood-opacity="0" result="BackgroundImageFix"/><feColorMatrix in="SourceAlpha" values="0 0 0 0 0 0 0 0 0 0 0 0 0 0 0 0 0 0 127 0" result="hardAlpha"/><feOffset dx="-14.233" dy="-7.907"/><feGaussianBlur stdDeviation=".791"/><feColorMatrix values="0 0 0 0 0 0 0 0 0 0 0 0 0 0 0 0 0 0 0.25 0"/><feBlend in2="BackgroundImageFix" result="effect1_dropShadow_282_331"/><feBlend in="SourceGraphic" in2="effect1_dropShadow_282_331" result="shape"/></filter><filter id="o" x="1330.8" y="693.632" width="45.959" height="39.718" filterUnits="userSpaceOnUse" color-interpolation-filters="sRGB"><feFlood flood-opacity="0" result="BackgroundImageFix"/><feColorMatrix in="SourceAlpha" values="0 0 0 0 0 0 0 0 0 0 0 0 0 0 0 0 0 0 127 0" result="hardAlpha"/><feOffset dx="-14.841" dy="-8.245"/><feGaussianBlur stdDeviation=".824"/><feColorMatrix values="0 0 0 0 0 0 0 0 0 0 0 0 0 0 0 0 0 0 0.25 0"/><feBlend in2="BackgroundImageFix" result="effect1_dropShadow_282_331"/><feBlend in="SourceGraphic" in2="effect1_dropShadow_282_331" result="shape"/></filter><filter id="p" x="355.911" y="75.309" width="52.13" height="45.781" filterUnits="userSpaceOnUse" color-interpolation-filters="sRGB"><feFlood flood-opacity="0" result="BackgroundImageFix"/><feColorMatrix in="SourceAlpha" values="0 0 0 0 0 0 0 0 0 0 0 0 0 0 0 0 0 0 127 0" result="hardAlpha"/><feOffset dx="-16.982" dy="-9.434"/><feGaussianBlur stdDeviation=".943"/><feColorMatrix values="0 0 0 0 0 0 0 0 0 0 0 0 0 0 0 0 0 0 0.25 0"/><feBlend in2="BackgroundImageFix" result="effect1_dropShadow_282_331"/><feBlend in="SourceGraphic" in2="effect1_dropShadow_282_331" result="shape"/></filter><filter id="q" x="523.467" y="21.308" width="47.166" height="37.123" filterUnits="userSpaceOnUse" color-interpolation-filters="sRGB"><feFlood flood-opacity="0" result="BackgroundImageFix"/><feColorMatrix in="SourceAlpha" values="0 0 0 0 0 0 0 0 0 0 0 0 0 0 0 0 0 0 127 0" result="hardAlpha"/><feOffset dx="-14.841" dy="-8.245"/><feGaussianBlur stdDeviation=".824"/><feColorMatrix values="0 0 0 0 0 0 0 0 0 0 0 0 0 0 0 0 0 0 0.25 0"/><feBlend in2="BackgroundImageFix" result="effect1_dropShadow_282_331"/><feBlend in="SourceGraphic" in2="effect1_dropShadow_282_331" result="shape"/></filter><filter id="r" x="398.67" y="485.95" width="29.938" height="25.659" filterUnits="userSpaceOnUse" color-interpolation-filters="sRGB"><feFlood flood-opacity="0" result="BackgroundImageFix"/><feColorMatrix in="SourceAlpha" values="0 0 0 0 0 0 0 0 0 0 0 0 0 0 0 0 0 0 127 0" result="hardAlpha"/><feOffset dx="-9.628" dy="-5.349"/><feGaussianBlur stdDeviation=".535"/><feColorMatrix values="0 0 0 0 0 0 0 0 0 0 0 0 0 0 0 0 0 0 0.25 0"/><feBlend in2="BackgroundImageFix" result="effect1_dropShadow_282_331"/><feBlend in="SourceGraphic" in2="effect1_dropShadow_282_331" result="shape"/></filter><filter id="s" x="143.612" y="923.974" width="42.525" height="38.202" filterUnits="userSpaceOnUse" color-interpolation-filters="sRGB"><feFlood flood-opacity="0" result="BackgroundImageFix"/><feColorMatrix in="SourceAlpha" values="0 0 0 0 0 0 0 0 0 0 0 0 0 0 0 0 0 0 127 0" result="hardAlpha"/><feOffset dx="-14.06" dy="-7.811"/><feGaussianBlur stdDeviation=".781"/><feColorMatrix values="0 0 0 0 0 0 0 0 0 0 0 0 0 0 0 0 0 0 0.25 0"/><feBlend in2="BackgroundImageFix" result="effect1_dropShadow_282_331"/><feBlend in="SourceGraphic" in2="effect1_dropShadow_282_331" result="shape"/></filter><filter id="t" x="69.599" y="136.198" width="32.67" height="28.785" filterUnits="userSpaceOnUse" color-interpolation-filters="sRGB"><feFlood flood-opacity="0" result="BackgroundImageFix"/><feColorMatrix in="SourceAlpha" values="0 0 0 0 0 0 0 0 0 0 0 0 0 0 0 0 0 0 127 0" result="hardAlpha"/><feOffset dx="-10.663" dy="-5.924"/><feGaussianBlur stdDeviation=".592"/><feColorMatrix values="0 0 0 0 0 0 0 0 0 0 0 0 0 0 0 0 0 0 0.25 0"/><feBlend in2="BackgroundImageFix" result="effect1_dropShadow_282_331"/><feBlend in="SourceGraphic" in2="effect1_dropShadow_282_331" result="shape"/></filter><filter id="u" x="297.125" y="386.392" width="54.82" height="51.374" filterUnits="userSpaceOnUse" color-interpolation-filters="sRGB"><feFlood flood-opacity="0" result="BackgroundImageFix"/><feColorMatrix in="SourceAlpha" values="0 0 0 0 0 0 0 0 0 0 0 0 0 0 0 0 0 0 127 0" result="hardAlpha"/><feOffset dx="-18.782" dy="-10.435"/><feGaussianBlur stdDeviation="1.043"/><feColorMatrix values="0 0 0 0 0 0 0 0 0 0 0 0 0 0 0 0 0 0 0.25 0"/><feBlend in2="BackgroundImageFix" result="effect1_dropShadow_282_331"/><feBlend in="SourceGraphic" in2="effect1_dropShadow_282_331" result="shape"/></filter><filter id="v" x="792.67" y="351.629" width="52.853" height="43.184" filterUnits="userSpaceOnUse" color-interpolation-filters="sRGB"><feFlood flood-opacity="0" result="BackgroundImageFix"/><feColorMatrix in="SourceAlpha" values="0 0 0 0 0 0 0 0 0 0 0 0 0 0 0 0 0 0 127 0" result="hardAlpha"/><feOffset dx="-16.722" dy="-9.29"/><feGaussianBlur stdDeviation=".929"/><feColorMatrix values="0 0 0 0 0 0 0 0 0 0 0 0 0 0 0 0 0 0 0.25 0"/><feBlend in2="BackgroundImageFix" result="effect1_dropShadow_282_331"/><feBlend in="SourceGraphic" in2="effect1_dropShadow_282_331" result="shape"/></filter><filter id="w" x="1220.55" y="616.955" width="61.212" height="48.88" filterUnits="userSpaceOnUse" color-interpolation-filters="sRGB"><feFlood flood-opacity="0" result="BackgroundImageFix"/><feColorMatrix in="SourceAlpha" values="0 0 0 0 0 0 0 0 0 0 0 0 0 0 0 0 0 0 127 0" result="hardAlpha"/><feOffset dx="-19.288" dy="-10.716"/><feGaussianBlur stdDeviation="1.072"/><feColorMatrix values="0 0 0 0 0 0 0 0 0 0 0 0 0 0 0 0 0 0 0.25 0"/><feBlend in2="BackgroundImageFix" result="effect1_dropShadow_282_331"/><feBlend in="SourceGraphic" in2="effect1_dropShadow_282_331" result="shape"/></filter><filter id="x" x="1346.1" y="923.381" width="68.423" height="56.174" filterUnits="userSpaceOnUse" color-interpolation-filters="sRGB"><feFlood flood-opacity="0" result="BackgroundImageFix"/><feColorMatrix in="SourceAlpha" values="0 0 0 0 0 0 0 0 0 0 0 0 0 0 0 0 0 0 127 0" result="hardAlpha"/><feOffset dx="-21.675" dy="-12.042"/><feGaussianBlur stdDeviation="1.204"/><feColorMatrix values="0 0 0 0 0 0 0 0 0 0 0 0 0 0 0 0 0 0 0.25 0"/><feBlend in2="BackgroundImageFix" result="effect1_dropShadow_282_331"/><feBlend in="SourceGraphic" in2="effect1_dropShadow_282_331" result="shape"/></filter><filter id="y" x="359.205" y="268.523" width="42.109" height="33.792" filterUnits="userSpaceOnUse" color-interpolation-filters="sRGB"><feFlood flood-opacity="0" result="BackgroundImageFix"/><feColorMatrix in="SourceAlpha" values="0 0 0 0 0 0 0 0 0 0 0 0 0 0 0 0 0 0 127 0" result="hardAlpha"/><feOffset dx="-18.715" dy="-10.397"/><feGaussianBlur stdDeviation="1.04"/><feColorMatrix values="0 0 0 0 0 0 0 0 0 0 0 0 0 0 0 0 0 0 0.25 0"/><feBlend in2="BackgroundImageFix" result="effect1_dropShadow_282_331"/><feBlend in="SourceGraphic" in2="effect1_dropShadow_282_331" result="shape"/></filter><filter id="z" x="557.059" y="354.035" width="30.256" height="24.28" filterUnits="userSpaceOnUse" color-interpolation-filters="sRGB"><feFlood flood-opacity="0" result="BackgroundImageFix"/><feColorMatrix in="SourceAlpha" values="0 0 0 0 0 0 0 0 0 0 0 0 0 0 0 0 0 0 127 0" result="hardAlpha"/><feOffset dx="-13.447" dy="-7.471"/><feGaussianBlur stdDeviation=".747"/><feColorMatrix values="0 0 0 0 0 0 0 0 0 0 0 0 0 0 0 0 0 0 0.25 0"/><feBlend in2="BackgroundImageFix" result="effect1_dropShadow_282_331"/><feBlend in="SourceGraphic" in2="effect1_dropShadow_282_331" result="shape"/></filter><filter id="A" x="1043.66" y="863.195" width="53.341" height="42.805" filterUnits="userSpaceOnUse" color-interpolation-filters="sRGB"><feFlood flood-opacity="0" result="BackgroundImageFix"/><feColorMatrix in="SourceAlpha" values="0 0 0 0 0 0 0 0 0 0 0 0 0 0 0 0 0 0 127 0" result="hardAlpha"/><feOffset dx="-23.707" dy="-13.171"/><feGaussianBlur stdDeviation="1.317"/><feColorMatrix values="0 0 0 0 0 0 0 0 0 0 0 0 0 0 0 0 0 0 0.25 0"/><feBlend in2="BackgroundImageFix" result="effect1_dropShadow_282_331"/><feBlend in="SourceGraphic" in2="effect1_dropShadow_282_331" result="shape"/></filter><filter id="B" x="1370.49" y="331.293" width="39.512" height="31.707" filterUnits="userSpaceOnUse" color-interpolation-filters="sRGB"><feFlood flood-opacity="0" result="BackgroundImageFix"/><feColorMatrix in="SourceAlpha" values="0 0 0 0 0 0 0 0 0 0 0 0 0 0 0 0 0 0 127 0" result="hardAlpha"/><feOffset dx="-17.561" dy="-9.756"/><feGaussianBlur stdDeviation=".976"/><feColorMatrix values="0 0 0 0 0 0 0 0 0 0 0 0 0 0 0 0 0 0 0.25 0"/><feBlend in2="BackgroundImageFix" result="effect1_dropShadow_282_331"/><feBlend in="SourceGraphic" in2="effect1_dropShadow_282_331" result="shape"/></filter><filter id="C" x="164.317" y="284.39" width="25.683" height="20.61" filterUnits="userSpaceOnUse" color-interpolation-filters="sRGB"><feFlood flood-opacity="0" result="BackgroundImageFix"/><feColorMatrix in="SourceAlpha" values="0 0 0 0 0 0 0 0 0 0 0 0 0 0 0 0 0 0 127 0" result="hardAlpha"/><feOffset dx="-11.415" dy="-6.341"/><feGaussianBlur stdDeviation=".634"/><feColorMatrix values="0 0 0 0 0 0 0 0 0 0 0 0 0 0 0 0 0 0 0.25 0"/><feBlend in2="BackgroundImageFix" result="effect1_dropShadow_282_331"/><feBlend in="SourceGraphic" in2="effect1_dropShadow_282_331" result="shape"/></filter><filter id="D" x="1080.41" y="694.049" width="33.585" height="26.951" filterUnits="userSpaceOnUse" color-interpolation-filters="sRGB"><feFlood flood-opacity="0" result="BackgroundImageFix"/><feColorMatrix in="SourceAlpha" values="0 0 0 0 0 0 0 0 0 0 0 0 0 0 0 0 0 0 127 0" result="hardAlpha"/><feOffset dx="-14.927" dy="-8.293"/><feGaussianBlur stdDeviation=".829"/><feColorMatrix values="0 0 0 0 0 0 0 0 0 0 0 0 0 0 0 0 0 0 0.25 0"/><feBlend in2="BackgroundImageFix" result="effect1_dropShadow_282_331"/><feBlend in="SourceGraphic" in2="effect1_dropShadow_282_331" result="shape"/></filter><filter id="E" x="1168.59" y="76.951" width="47.415" height="38.049" filterUnits="userSpaceOnUse" color-interpolation-filters="sRGB"><feFlood flood-opacity="0" result="BackgroundImageFix"/><feColorMatrix in="SourceAlpha" values="0 0 0 0 0 0 0 0 0 0 0 0 0 0 0 0 0 0 127 0" result="hardAlpha"/><feOffset dx="-21.073" dy="-11.707"/><feGaussianBlur stdDeviation="1.171"/><feColorMatrix values="0 0 0 0 0 0 0 0 0 0 0 0 0 0 0 0 0 0 0.25 0"/><feBlend in2="BackgroundImageFix" result="effect1_dropShadow_282_331"/><feBlend in="SourceGraphic" in2="effect1_dropShadow_282_331" result="shape"/></filter><filter id="F" x="731.341" y="906.805" width="27.659" height="22.195" filterUnits="userSpaceOnUse" color-interpolation-filters="sRGB"><feFlood flood-opacity="0" result="BackgroundImageFix"/><feColorMatrix in="SourceAlpha" values="0 0 0 0 0 0 0 0 0 0 0 0 0 0 0 0 0 0 127 0" result="hardAlpha"/><feOffset dx="-12.293" dy="-6.829"/><feGaussianBlur stdDeviation=".683"/><feColorMatrix values="0 0 0 0 0 0 0 0 0 0 0 0 0 0 0 0 0 0 0.25 0"/><feBlend in2="BackgroundImageFix" result="effect1_dropShadow_282_331"/><feBlend in="SourceGraphic" in2="effect1_dropShadow_282_331" result="shape"/></filter><filter id="G" x="913.268" y="675.561" width="21.732" height="17.439" filterUnits="userSpaceOnUse" color-interpolation-filters="sRGB"><feFlood flood-opacity="0" result="BackgroundImageFix"/><feColorMatrix in="SourceAlpha" values="0 0 0 0 0 0 0 0 0 0 0 0 0 0 0 0 0 0 127 0" result="hardAlpha"/><feOffset dx="-9.659" dy="-5.366"/><feGaussianBlur stdDeviation=".537"/><feColorMatrix values="0 0 0 0 0 0 0 0 0 0 0 0 0 0 0 0 0 0 0.25 0"/><feBlend in2="BackgroundImageFix" result="effect1_dropShadow_282_331"/><feBlend in="SourceGraphic" in2="effect1_dropShadow_282_331" result="shape"/></filter><filter id="H" x="1239.27" y="442.561" width="21.732" height="17.439" filterUnits="userSpaceOnUse" color-interpolation-filters="sRGB"><feFlood flood-opacity="0" result="BackgroundImageFix"/><feColorMatrix in="SourceAlpha" values="0 0 0 0 0 0 0 0 0 0 0 0 0 0 0 0 0 0 127 0" result="hardAlpha"/><feOffset dx="-9.659" dy="-5.366"/><feGaussianBlur stdDeviation=".537"/><feColorMatrix values="0 0 0 0 0 0 0 0 0 0 0 0 0 0 0 0 0 0 0.25 0"/><feBlend in2="BackgroundImageFix" result="effect1_dropShadow_282_331"/><feBlend in="SourceGraphic" in2="effect1_dropShadow_282_331" result="shape"/></filter><filter id="I" x="337.268" y="593.561" width="21.732" height="17.439" filterUnits="userSpaceOnUse" color-interpolation-filters="sRGB"><feFlood flood-opacity="0" result="BackgroundImageFix"/><feColorMatrix in="SourceAlpha" values="0 0 0 0 0 0 0 0 0 0 0 0 0 0 0 0 0 0 127 0" result="hardAlpha"/><feOffset dx="-9.659" dy="-5.366"/><feGaussianBlur stdDeviation=".537"/><feColorMatrix values="0 0 0 0 0 0 0 0 0 0 0 0 0 0 0 0 0 0 0.25 0"/><feBlend in2="BackgroundImageFix" result="effect1_dropShadow_282_331"/><feBlend in="SourceGraphic" in2="effect1_dropShadow_282_331" result="shape"/></filter><filter id="J" x="242.366" y="737.22" width="29.634" height="23.78" filterUnits="userSpaceOnUse" color-interpolation-filters="sRGB"><feFlood flood-opacity="0" result="BackgroundImageFix"/><feColorMatrix in="SourceAlpha" values="0 0 0 0 0 0 0 0 0 0 0 0 0 0 0 0 0 0 127 0" result="hardAlpha"/><feOffset dx="-13.171" dy="-7.317"/><feGaussianBlur stdDeviation=".732"/><feColorMatrix values="0 0 0 0 0 0 0 0 0 0 0 0 0 0 0 0 0 0 0.25 0"/><feBlend in2="BackgroundImageFix" result="effect1_dropShadow_282_331"/><feBlend in="SourceGraphic" in2="effect1_dropShadow_282_331" result="shape"/></filter><filter id="K" x="781.439" y="112.463" width="35.561" height="28.537" filterUnits="userSpaceOnUse" color-interpolation-filters="sRGB"><feFlood flood-opacity="0" result="BackgroundImageFix"/><feColorMatrix in="SourceAlpha" values="0 0 0 0 0 0 0 0 0 0 0 0 0 0 0 0 0 0 127 0" result="hardAlpha"/><feOffset dx="-15.805" dy="-8.78"/><feGaussianBlur stdDeviation=".878"/><feColorMatrix values="0 0 0 0 0 0 0 0 0 0 0 0 0 0 0 0 0 0 0.25 0"/><feBlend in2="BackgroundImageFix" result="effect1_dropShadow_282_331"/><feBlend in="SourceGraphic" in2="effect1_dropShadow_282_331" result="shape"/></filter><filter id="L" x="1103.29" y="554.976" width="23.707" height="19.024" filterUnits="userSpaceOnUse" color-interpolation-filters="sRGB"><feFlood flood-opacity="0" result="BackgroundImageFix"/><feColorMatrix in="SourceAlpha" values="0 0 0 0 0 0 0 0 0 0 0 0 0 0 0 0 0 0 127 0" result="hardAlpha"/><feOffset dx="-10.537" dy="-5.854"/><feGaussianBlur stdDeviation=".585"/><feColorMatrix values="0 0 0 0 0 0 0 0 0 0 0 0 0 0 0 0 0 0 0.25 0"/><feBlend in2="BackgroundImageFix" result="effect1_dropShadow_282_331"/><feBlend in="SourceGraphic" in2="effect1_dropShadow_282_331" result="shape"/></filter><filter id="M" x="85.488" y="423.293" width="39.512" height="31.707" filterUnits="userSpaceOnUse" color-interpolation-filters="sRGB"><feFlood flood-opacity="0" result="BackgroundImageFix"/><feColorMatrix in="SourceAlpha" values="0 0 0 0 0 0 0 0 0 0 0 0 0 0 0 0 0 0 127 0" result="hardAlpha"/><feOffset dx="-17.561" dy="-9.756"/><feGaussianBlur stdDeviation=".976"/><feColorMatrix values="0 0 0 0 0 0 0 0 0 0 0 0 0 0 0 0 0 0 0.25 0"/><feBlend in2="BackgroundImageFix" result="effect1_dropShadow_282_331"/><feBlend in="SourceGraphic" in2="effect1_dropShadow_282_331" result="shape"/></filter><filter id="N" x="478.106" y="114.186" width="60.129" height="81.843" filterUnits="userSpaceOnUse" color-interpolation-filters="sRGB"><feFlood flood-opacity="0" result="BackgroundImageFix"/><feColorMatrix in="SourceAlpha" values="0 0 0 0 0 0 0 0 0 0 0 0 0 0 0 0 0 0 127 0" result="hardAlpha"/><feOffset dx="-26.72" dy="-14.845"/><feGaussianBlur stdDeviation="1.484"/><feColorMatrix values="0 0 0 0 0 0 0 0 0 0 0 0 0 0 0 0 0 0 0.25 0"/><feBlend in2="BackgroundImageFix" result="effect1_dropShadow_282_331"/><feBlend in="SourceGraphic" in2="effect1_dropShadow_282_331" result="shape"/></filter><filter id="O" x="534.311" y="622.444" width="94.183" height="48.8" filterUnits="userSpaceOnUse" color-interpolation-filters="sRGB"><feFlood flood-opacity="0" result="BackgroundImageFix"/><feColorMatrix in="SourceAlpha" values="0 0 0 0 0 0 0 0 0 0 0 0 0 0 0 0 0 0 127 0" result="hardAlpha"/><feOffset dx="-26.72" dy="-14.845"/><feGaussianBlur stdDeviation="1.484"/><feColorMatrix values="0 0 0 0 0 0 0 0 0 0 0 0 0 0 0 0 0 0 0.25 0"/><feBlend in2="BackgroundImageFix" result="effect1_dropShadow_282_331"/><feBlend in="SourceGraphic" in2="effect1_dropShadow_282_331" result="shape"/></filter><filter id="P" x="1221.16" y="835.186" width="63.72" height="83.735" filterUnits="userSpaceOnUse" color-interpolation-filters="sRGB"><feFlood flood-opacity="0" result="BackgroundImageFix"/><feColorMatrix in="SourceAlpha" values="0 0 0 0 0 0 0 0 0 0 0 0 0 0 0 0 0 0 127 0" result="hardAlpha"/><feOffset dx="-26.72" dy="-14.845"/><feGaussianBlur stdDeviation="1.484"/><feColorMatrix values="0 0 0 0 0 0 0 0 0 0 0 0 0 0 0 0 0 0 0.25 0"/><feBlend in2="BackgroundImageFix" result="effect1_dropShadow_282_331"/><feBlend in="SourceGraphic" in2="effect1_dropShadow_282_331" result="shape"/></filter><filter id="Q" x="633.311" y="393.805" width="87.463" height="58.501" filterUnits="userSpaceOnUse" color-interpolation-filters="sRGB"><feFlood flood-opacity="0" result="BackgroundImageFix"/><feColorMatrix in="SourceAlpha" values="0 0 0 0 0 0 0 0 0 0 0 0 0 0 0 0 0 0 127 0" result="hardAlpha"/><feOffset dx="-26.72" dy="-14.845"/><feGaussianBlur stdDeviation="1.484"/><feColorMatrix values="0 0 0 0 0 0 0 0 0 0 0 0 0 0 0 0 0 0 0.25 0"/><feBlend in2="BackgroundImageFix" result="effect1_dropShadow_282_331"/><feBlend in="SourceGraphic" in2="effect1_dropShadow_282_331" result="shape"/></filter><filter id="R" x="404.383" y="859.186" width="63.859" height="74.327" filterUnits="userSpaceOnUse" color-interpolation-filters="sRGB"><feFlood flood-opacity="0" result="BackgroundImageFix"/><feColorMatrix in="SourceAlpha" values="0 0 0 0 0 0 0 0 0 0 0 0 0 0 0 0 0 0 127 0" result="hardAlpha"/><feOffset dx="-26.72" dy="-14.845"/><feGaussianBlur stdDeviation="1.484"/><feColorMatrix values="0 0 0 0 0 0 0 0 0 0 0 0 0 0 0 0 0 0 0.25 0"/><feBlend in2="BackgroundImageFix" result="effect1_dropShadow_282_331"/><feBlend in="SourceGraphic" in2="effect1_dropShadow_282_331" result="shape"/></filter><filter id="S" x="1249.46" y="185.186" width="64.97" height="81.138" filterUnits="userSpaceOnUse" color-interpolation-filters="sRGB"><feFlood flood-opacity="0" result="BackgroundImageFix"/><feColorMatrix in="SourceAlpha" values="0 0 0 0 0 0 0 0 0 0 0 0 0 0 0 0 0 0 127 0" result="hardAlpha"/><feOffset dx="-26.72" dy="-14.845"/><feGaussianBlur stdDeviation="1.484"/><feColorMatrix values="0 0 0 0 0 0 0 0 0 0 0 0 0 0 0 0 0 0 0.25 0"/><feBlend in2="BackgroundImageFix" result="effect1_dropShadow_282_331"/><feBlend in="SourceGraphic" in2="effect1_dropShadow_282_331" result="shape"/></filter><filter id="T" x="825.311" y="775.992" width="90.838" height="52.941" filterUnits="userSpaceOnUse" color-interpolation-filters="sRGB"><feFlood flood-opacity="0" result="BackgroundImageFix"/><feColorMatrix in="SourceAlpha" values="0 0 0 0 0 0 0 0 0 0 0 0 0 0 0 0 0 0 127 0" result="hardAlpha"/><feOffset dx="-26.72" dy="-14.845"/><feGaussianBlur stdDeviation="1.484"/><feColorMatrix values="0 0 0 0 0 0 0 0 0 0 0 0 0 0 0 0 0 0 0.25 0"/><feBlend in2="BackgroundImageFix" result="effect1_dropShadow_282_331"/><feBlend in="SourceGraphic" in2="effect1_dropShadow_282_331" result="shape"/></filter><filter id="U" x="131.928" y="577.186" width="70.377" height="75.587" filterUnits="userSpaceOnUse" color-interpolation-filters="sRGB"><feFlood flood-opacity="0" result="BackgroundImageFix"/><feColorMatrix in="SourceAlpha" values="0 0 0 0 0 0 0 0 0 0 0 0 0 0 0 0 0 0 127 0" result="hardAlpha"/><feOffset dx="-26.72" dy="-14.845"/><feGaussianBlur stdDeviation="1.484"/><feColorMatrix values="0 0 0 0 0 0 0 0 0 0 0 0 0 0 0 0 0 0 0.25 0"/><feBlend in2="BackgroundImageFix" result="effect1_dropShadow_282_331"/><feBlend in="SourceGraphic" in2="effect1_dropShadow_282_331" result="shape"/></filter><filter id="V" x="160.387" y="51.094" width="95.568" height="52.028" filterUnits="userSpaceOnUse" color-interpolation-filters="sRGB"><feFlood flood-opacity="0" result="BackgroundImageFix"/><feColorMatrix in="SourceAlpha" values="0 0 0 0 0 0 0 0 0 0 0 0 0 0 0 0 0 0 127 0" result="hardAlpha"/><feOffset dx="-26.72" dy="-14.845"/><feGaussianBlur stdDeviation="1.484"/><feColorMatrix values="0 0 0 0 0 0 0 0 0 0 0 0 0 0 0 0 0 0 0.25 0"/><feBlend in2="BackgroundImageFix" result="effect1_dropShadow_282_331"/><feBlend in="SourceGraphic" in2="effect1_dropShadow_282_331" result="shape"/></filter><filter id="W" x="896.088" y="482.186" width="76.896" height="69.445" filterUnits="userSpaceOnUse" color-interpolation-filters="sRGB"><feFlood flood-opacity="0" result="BackgroundImageFix"/><feColorMatrix in="SourceAlpha" values="0 0 0 0 0 0 0 0 0 0 0 0 0 0 0 0 0 0 127 0" result="hardAlpha"/><feOffset dx="-26.72" dy="-14.845"/><feGaussianBlur stdDeviation="1.484"/><feColorMatrix values="0 0 0 0 0 0 0 0 0 0 0 0 0 0 0 0 0 0 0.25 0"/><feBlend in2="BackgroundImageFix" result="effect1_dropShadow_282_331"/><feBlend in="SourceGraphic" in2="effect1_dropShadow_282_331" result="shape"/></filter><filter id="X" x="886.139" y="44.36" width="92.799" height="53.098" filterUnits="userSpaceOnUse" color-interpolation-filters="sRGB"><feFlood flood-opacity="0" result="BackgroundImageFix"/><feColorMatrix in="SourceAlpha" values="0 0 0 0 0 0 0 0 0 0 0 0 0 0 0 0 0 0 127 0" result="hardAlpha"/><feOffset dx="-26.72" dy="-14.845"/><feGaussianBlur stdDeviation="1.484"/><feColorMatrix values="0 0 0 0 0 0 0 0 0 0 0 0 0 0 0 0 0 0 0.25 0"/><feBlend in2="BackgroundImageFix" result="effect1_dropShadow_282_331"/><feBlend in="SourceGraphic" in2="effect1_dropShadow_282_331" result="shape"/></filter><filter id="Y" x="1326.31" y="503.168" width="87.99" height="57.787" filterUnits="userSpaceOnUse" color-interpolation-filters="sRGB"><feFlood flood-opacity="0" result="BackgroundImageFix"/><feColorMatrix in="SourceAlpha" values="0 0 0 0 0 0 0 0 0 0 0 0 0 0 0 0 0 0 127 0" result="hardAlpha"/><feOffset dx="-26.72" dy="-14.845"/><feGaussianBlur stdDeviation="1.484"/><feColorMatrix values="0 0 0 0 0 0 0 0 0 0 0 0 0 0 0 0 0 0 0.25 0"/><feBlend in2="BackgroundImageFix" result="effect1_dropShadow_282_331"/><feBlend in="SourceGraphic" in2="effect1_dropShadow_282_331" result="shape"/></filter></defs></svg>