<svg width="88" height="75" fill="none" xmlns="http://www.w3.org/2000/svg">
    <g clip-path="url(#a)">
        <path d="m43.983 36.346.567.39.567-.39L74.36 16.232l4.725 3.25L44.55 43.236 10.015 19.482l4.725-3.25 29.243 20.114Z" fill="url(#b)" stroke="#000" stroke-width="2"/>
    </g>
    <g clip-path="url(#c)">
        <path d="m43.983 50.653.567.39.567-.39L74.36 30.539l4.725 3.25L44.55 57.543 10.015 33.789l4.725-3.25 29.243 20.114Z" fill="url(#d)" stroke="#000" stroke-width="2"/>
    </g>
    <defs>
        <linearGradient id="b" x1="44.875" y1="44.422" x2="44.822" y2="15.104" gradientUnits="userSpaceOnUse">
            <stop stop-color="#ED71BF"/>
            <stop offset=".465" stop-color="#F1A495"/>
            <stop offset="1" stop-color="#F9DB72"/>
        </linearGradient>
        <linearGradient id="d" x1="44.875" y1="58.729" x2="44.822" y2="29.411" gradientUnits="userSpaceOnUse">
            <stop stop-color="#ED71BF"/>
            <stop offset=".465" stop-color="#F1A495"/>
            <stop offset="1" stop-color="#F9DB72"/>
        </linearGradient>
        <clipPath id="a">
            <path fill="#fff" transform="rotate(-90 30.264 30.264)" d="M0 0h60.527v88H0z"/>
        </clipPath>
        <clipPath id="c">
            <path fill="#fff" transform="rotate(-90 37.417 37.417)" d="M0 0h60.527v88H0z"/>
        </clipPath>
    </defs>
</svg>