<svg width="158" height="156" fill="none" xmlns="http://www.w3.org/2000/svg">
    <g filter="url(#a)">
        <path d="M114 67.837c0 7.46-6.047 13.507-13.507 13.507H57.507C50.047 81.344 44 75.297 44 67.837c0-5.118 2.892-9.796 7.47-12.083l16.357-8.172a25 25 0 0 1 22.346 0l16.357 8.172A13.507 13.507 0 0 1 114 67.837Z" fill="url(#b)"/>
    </g>
    <g filter="url(#c)">
        <rect x="73.334" y="74.26" width="11.667" height="30.264" rx="5.833" fill="url(#d)"/>
    </g>
    <g filter="url(#e)">
        <rect x="91.666" y="74.26" width="11.667" height="30.264" rx="5.833" fill="url(#f)"/>
    </g>
    <g filter="url(#g)">
        <rect x="55" y="74.26" width="11.667" height="30.264" rx="5.833" fill="url(#h)"/>
    </g>
    <g filter="url(#i)">
        <path d="M105.667 96.868c4.602 0 8.333 3.387 8.333 7.566S110.269 112 105.667 112H52.333c-4.602 0-8.333-3.387-8.333-7.566s3.731-7.566 8.333-7.566h53.334Z" fill="url(#j)"/>
    </g>
    <g filter="url(#k)" shape-rendering="crispEdges">
        <rect x="112.333" y="98.381" width="12.106" height="66.667" rx="6.053" transform="rotate(90 112.333 98.381)" fill="url(#l)"/>
        <rect x="111.933" y="98.781" width="11.306" height="65.867" rx="5.653" transform="rotate(90 111.933 98.781)" stroke="url(#m)" stroke-width=".8"/>
    </g>
    <g filter="url(#n)" shape-rendering="crispEdges">
        <path d="M112.333 68.034c0 6.85-5.552 12.402-12.402 12.402H58.07c-6.85 0-12.402-5.553-12.402-12.402 0-4.755 2.718-9.09 6.997-11.163l15.44-7.477a25 25 0 0 1 21.792 0l15.441 7.477a12.401 12.401 0 0 1 6.996 11.163Z" fill="url(#o)"/>
        <path d="M111.833 68.034c0 6.573-5.328 11.902-11.902 11.902H58.07c-6.573 0-11.902-5.329-11.902-11.902 0-4.563 2.608-8.724 6.715-10.713l15.44-7.477a24.5 24.5 0 0 1 21.356 0l15.441 7.477a11.902 11.902 0 0 1 6.714 10.713Z" stroke="url(#p)"/>
    </g>
    <defs>
        <linearGradient id="b" x1="52.575" y1="53.639" x2="111.05" y2="51.948" gradientUnits="userSpaceOnUse">
            <stop stop-color="#BDBDFF" stop-opacity=".4"/>
            <stop offset="1" stop-color="#8B7DEC" stop-opacity=".4"/>
        </linearGradient>
        <linearGradient id="d" x1="73.334" y1="72.098" x2="61.23" y2="88.775" gradientUnits="userSpaceOnUse">
            <stop stop-color="#BDBDFF"/>
            <stop offset="1" stop-color="#8B7DEC"/>
        </linearGradient>
        <linearGradient id="f" x1="91.666" y1="72.098" x2="79.564" y2="88.775" gradientUnits="userSpaceOnUse">
            <stop stop-color="#BDBDFF"/>
            <stop offset="1" stop-color="#8B7DEC"/>
        </linearGradient>
        <linearGradient id="h" x1="55" y1="72.098" x2="42.897" y2="88.775" gradientUnits="userSpaceOnUse">
            <stop stop-color="#BDBDFF"/>
            <stop offset="1" stop-color="#8B7DEC"/>
        </linearGradient>
        <linearGradient id="j" x1="37" y1="94.598" x2="43.608" y2="126.555" gradientUnits="userSpaceOnUse">
            <stop stop-color="#BDBDFF" stop-opacity=".4"/>
            <stop offset="1" stop-color="#8B7DEC" stop-opacity=".4"/>
        </linearGradient>
        <linearGradient id="l" x1="110.518" y1="171.714" x2="136.396" y2="167.219" gradientUnits="userSpaceOnUse">
            <stop stop-color="#fff" stop-opacity=".2"/>
            <stop offset="1" stop-color="#fff" stop-opacity=".5"/>
        </linearGradient>
        <linearGradient id="m" x1="123.229" y1="171.714" x2="97.977" y2="166.237" gradientUnits="userSpaceOnUse">
            <stop stop-color="#fff" stop-opacity="0"/>
            <stop offset="1" stop-color="#fff"/>
        </linearGradient>
        <linearGradient id="o" x1="122.333" y1="40.487" x2="86.377" y2="103.621" gradientUnits="userSpaceOnUse">
            <stop stop-color="#fff" stop-opacity=".2"/>
            <stop offset="1" stop-color="#fff" stop-opacity=".5"/>
        </linearGradient>
        <linearGradient id="p" x1="52.334" y1="40.487" x2="77.405" y2="95.458" gradientUnits="userSpaceOnUse">
            <stop stop-color="#fff" stop-opacity="0"/>
            <stop offset="1" stop-color="#fff"/>
        </linearGradient>
        <filter id="a" x="0" y=".946" width="158" height="124.397" filterUnits="userSpaceOnUse" color-interpolation-filters="sRGB">
            <feFlood flood-opacity="0" result="BackgroundImageFix"/>
            <feBlend in="SourceGraphic" in2="BackgroundImageFix" result="shape"/>
            <feGaussianBlur stdDeviation="22" result="effect1_foregroundBlur_406_216"/>
        </filter>
        <filter id="c" x="69.334" y="70.26" width="19.666" height="42.264" filterUnits="userSpaceOnUse" color-interpolation-filters="sRGB">
            <feFlood flood-opacity="0" result="BackgroundImageFix"/>
            <feGaussianBlur in="BackgroundImageFix" stdDeviation="2"/>
            <feComposite in2="SourceAlpha" operator="in" result="effect1_backgroundBlur_406_216"/>
            <feColorMatrix in="SourceAlpha" values="0 0 0 0 0 0 0 0 0 0 0 0 0 0 0 0 0 0 127 0" result="hardAlpha"/>
            <feOffset dy="4"/>
            <feGaussianBlur stdDeviation="2"/>
            <feComposite in2="hardAlpha" operator="out"/>
            <feColorMatrix values="0 0 0 0 0 0 0 0 0 0 0 0 0 0 0 0 0 0 0.25 0"/>
            <feBlend in2="effect1_backgroundBlur_406_216" result="effect2_dropShadow_406_216"/>
            <feBlend in="SourceGraphic" in2="effect2_dropShadow_406_216" result="shape"/>
        </filter>
        <filter id="e" x="87.666" y="70.26" width="19.666" height="42.264" filterUnits="userSpaceOnUse" color-interpolation-filters="sRGB">
            <feFlood flood-opacity="0" result="BackgroundImageFix"/>
            <feGaussianBlur in="BackgroundImageFix" stdDeviation="2"/>
            <feComposite in2="SourceAlpha" operator="in" result="effect1_backgroundBlur_406_216"/>
            <feColorMatrix in="SourceAlpha" values="0 0 0 0 0 0 0 0 0 0 0 0 0 0 0 0 0 0 127 0" result="hardAlpha"/>
            <feOffset dy="4"/>
            <feGaussianBlur stdDeviation="2"/>
            <feComposite in2="hardAlpha" operator="out"/>
            <feColorMatrix values="0 0 0 0 0 0 0 0 0 0 0 0 0 0 0 0 0 0 0.25 0"/>
            <feBlend in2="effect1_backgroundBlur_406_216" result="effect2_dropShadow_406_216"/>
            <feBlend in="SourceGraphic" in2="effect2_dropShadow_406_216" result="shape"/>
        </filter>
        <filter id="g" x="51" y="70.26" width="19.666" height="42.264" filterUnits="userSpaceOnUse" color-interpolation-filters="sRGB">
            <feFlood flood-opacity="0" result="BackgroundImageFix"/>
            <feGaussianBlur in="BackgroundImageFix" stdDeviation="2"/>
            <feComposite in2="SourceAlpha" operator="in" result="effect1_backgroundBlur_406_216"/>
            <feColorMatrix in="SourceAlpha" values="0 0 0 0 0 0 0 0 0 0 0 0 0 0 0 0 0 0 127 0" result="hardAlpha"/>
            <feOffset dy="4"/>
            <feGaussianBlur stdDeviation="2"/>
            <feComposite in2="hardAlpha" operator="out"/>
            <feColorMatrix values="0 0 0 0 0 0 0 0 0 0 0 0 0 0 0 0 0 0 0.25 0"/>
            <feBlend in2="effect1_backgroundBlur_406_216" result="effect2_dropShadow_406_216"/>
            <feBlend in="SourceGraphic" in2="effect2_dropShadow_406_216" result="shape"/>
        </filter>
        <filter id="i" x="0" y="52.868" width="158" height="103.132" filterUnits="userSpaceOnUse" color-interpolation-filters="sRGB">
            <feFlood flood-opacity="0" result="BackgroundImageFix"/>
            <feBlend in="SourceGraphic" in2="BackgroundImageFix" result="shape"/>
            <feGaussianBlur stdDeviation="22" result="effect1_foregroundBlur_406_216"/>
        </filter>
        <filter id="k" x="35.667" y="88.381" width="86.666" height="32.106" filterUnits="userSpaceOnUse" color-interpolation-filters="sRGB">
            <feFlood flood-opacity="0" result="BackgroundImageFix"/>
            <feGaussianBlur in="BackgroundImageFix" stdDeviation="5"/>
            <feComposite in2="SourceAlpha" operator="in" result="effect1_backgroundBlur_406_216"/>
            <feColorMatrix in="SourceAlpha" values="0 0 0 0 0 0 0 0 0 0 0 0 0 0 0 0 0 0 127 0" result="hardAlpha"/>
            <feOffset dy="4"/>
            <feGaussianBlur stdDeviation="2"/>
            <feComposite in2="hardAlpha" operator="out"/>
            <feColorMatrix values="0 0 0 0 0 0 0 0 0 0 0 0 0 0 0 0 0 0 0.25 0"/>
            <feBlend in2="effect1_backgroundBlur_406_216" result="effect2_dropShadow_406_216"/>
            <feBlend in="SourceGraphic" in2="effect2_dropShadow_406_216" result="shape"/>
        </filter>
        <filter id="n" x="35.667" y="36.895" width="86.666" height="53.541" filterUnits="userSpaceOnUse" color-interpolation-filters="sRGB">
            <feFlood flood-opacity="0" result="BackgroundImageFix"/>
            <feGaussianBlur in="BackgroundImageFix" stdDeviation="5"/>
            <feComposite in2="SourceAlpha" operator="in" result="effect1_backgroundBlur_406_216"/>
            <feColorMatrix in="SourceAlpha" values="0 0 0 0 0 0 0 0 0 0 0 0 0 0 0 0 0 0 127 0" result="hardAlpha"/>
            <feOffset dy="4"/>
            <feGaussianBlur stdDeviation="2"/>
            <feComposite in2="hardAlpha" operator="out"/>
            <feColorMatrix values="0 0 0 0 0 0 0 0 0 0 0 0 0 0 0 0 0 0 0.25 0"/>
            <feBlend in2="effect1_backgroundBlur_406_216" result="effect2_dropShadow_406_216"/>
            <feBlend in="SourceGraphic" in2="effect2_dropShadow_406_216" result="shape"/>
        </filter>
    </defs>
</svg>