<svg width="248" height="269" fill="none" xmlns="http://www.w3.org/2000/svg">
    <g filter="url(#a)">
        <path d="M44 40.5a.5.5 0 0 1 .5-.5h159a.5.5 0 0 1 .5.5V140c0 44.183-35.817 80-80 80s-80-35.817-80-80V40.5Z" fill="url(#b)"/>
    </g>
    <path d="M55.5 69.614c0-3.797-3.103-6.94-6.838-6.26-1.91.349-3.785.843-5.6 1.478-3.942 1.383-7.525 3.408-10.543 5.962-3.018 2.553-5.412 5.585-7.045 8.921C23.84 83.052 23 86.628 23 90.24c0 3.611.84 7.188 2.474 10.524 1.633 3.336 4.027 6.368 7.045 8.922 3.018 2.553 6.6 4.579 10.544 5.961a36.943 36.943 0 0 0 5.599 1.478c3.735.68 6.838-2.463 6.838-6.26v-.539c0-3.499-2.916-6.225-6.219-7.383-1.971-.691-3.762-1.703-5.271-2.98-1.51-1.277-2.706-2.793-3.523-4.461a11.938 11.938 0 0 1-1.237-5.262c0-1.806.42-3.594 1.237-5.262.817-1.668 2.014-3.184 3.523-4.46 1.509-1.277 3.3-2.29 5.271-2.981 3.303-1.158 6.219-3.883 6.219-7.383v-.539Z" fill="url(#c)"/>
    <path d="M193.108 109.516c0 3.797 3.103 6.94 6.839 6.26a36.982 36.982 0 0 0 5.599-1.478c3.943-1.382 7.525-3.408 10.543-5.961 3.018-2.554 5.412-5.585 7.045-8.922 1.634-3.336 2.474-6.912 2.474-10.524 0-3.611-.84-7.187-2.474-10.523-1.633-3.337-4.027-6.368-7.045-8.922-3.018-2.554-6.6-4.58-10.543-5.961a36.982 36.982 0 0 0-5.599-1.478c-3.736-.68-6.839 2.462-6.839 6.26v.538c0 3.5 2.917 6.226 6.219 7.383 1.972.691 3.763 1.704 5.272 2.98 1.509 1.277 2.706 2.793 3.522 4.461a11.934 11.934 0 0 1 1.237 5.262c0 1.806-.42 3.594-1.237 5.262-.816 1.668-2.013 3.184-3.522 4.461-1.509 1.277-3.3 2.29-5.272 2.981-3.302 1.157-6.219 3.883-6.219 7.382v.539Z" fill="url(#d)"/>
    <rect x="107" y="157.913" width="35" height="90" rx="17.5" fill="url(#e)"/>
    <g filter="url(#f)" shape-rendering="crispEdges">
        <rect x="77" y="230.435" width="95" height="30" rx="15" fill="url(#g)"/>
        <rect x="77.2" y="230.635" width="94.6" height="29.6" rx="14.8" stroke="url(#h)" stroke-width=".4"/>
    </g>
    <g filter="url(#i)" shape-rendering="crispEdges">
        <path d="M49 67.609c0-13.807 11.193-25 25-25h100c13.807 0 25 11.193 25 25v70c0 41.421-33.579 75-75 75s-75-33.579-75-75v-70Z" fill="url(#j)"/>
        <path d="M49.35 67.609c0-13.614 11.036-24.65 24.65-24.65h100c13.614 0 24.65 11.036 24.65 24.65v70c0 41.228-33.422 74.65-74.65 74.65-41.228 0-74.65-33.422-74.65-74.65v-70Z" stroke="url(#k)" stroke-width=".7"/>
    </g>
    <g filter="url(#l)">
        <path d="M119.754 89.438c1.956-3.147 6.536-3.147 8.492 0l8.752 14.076a4.998 4.998 0 0 0 3.047 2.214l16.092 3.974c3.597.888 5.012 5.244 2.624 8.077l-10.682 12.673a5 5 0 0 0-1.164 3.582l1.193 16.533c.267 3.695-3.438 6.387-6.87 4.991l-15.355-6.243a4.998 4.998 0 0 0-3.766 0l-15.355 6.243c-3.432 1.396-7.137-1.296-6.87-4.992l1.193-16.532a5 5 0 0 0-1.164-3.582L89.24 117.779c-2.388-2.833-.973-7.189 2.624-8.077l16.092-3.974a4.998 4.998 0 0 0 3.047-2.214l8.752-14.076Z" fill="url(#m)" shape-rendering="crispEdges"/>
    </g>
    <defs>
        <linearGradient id="b" x1="44" y1="40" x2="222.759" y2="198.897" gradientUnits="userSpaceOnUse">
            <stop stop-color="#BDBDFF" stop-opacity=".4"/>
            <stop offset="1" stop-color="#8B7DEC" stop-opacity=".4"/>
        </linearGradient>
        <linearGradient id="c" x1="25.907" y1="62.739" x2="74.497" y2="125.891" gradientUnits="userSpaceOnUse">
            <stop stop-color="#BDBDFF"/>
            <stop offset="1" stop-color="#8B7DEC"/>
        </linearGradient>
        <linearGradient id="d" x1="208.968" y1="61.391" x2="170.192" y2="110.859" gradientUnits="userSpaceOnUse">
            <stop stop-color="#BDBDFF"/>
            <stop offset="1" stop-color="#8B7DEC"/>
        </linearGradient>
        <linearGradient id="e" x1="107" y1="157.913" x2="167.804" y2="181.559" gradientUnits="userSpaceOnUse">
            <stop stop-color="#BDBDFF"/>
            <stop offset="1" stop-color="#8B7DEC"/>
        </linearGradient>
        <linearGradient id="g" x1="62.75" y1="263.435" x2="83.311" y2="201.155" gradientUnits="userSpaceOnUse">
            <stop stop-color="#fff" stop-opacity=".2"/>
            <stop offset="1" stop-color="#fff" stop-opacity=".5"/>
        </linearGradient>
        <linearGradient id="h" x1="162.5" y1="263.435" x2="148.945" y2="212.164" gradientUnits="userSpaceOnUse">
            <stop stop-color="#fff" stop-opacity="0"/>
            <stop offset="1" stop-color="#fff"/>
        </linearGradient>
        <linearGradient id="j" x1="78.167" y1="226.775" x2="219.097" y2="59.545" gradientUnits="userSpaceOnUse">
            <stop stop-color="#fff" stop-opacity=".2"/>
            <stop offset="1" stop-color="#fff" stop-opacity=".5"/>
        </linearGradient>
        <linearGradient id="k" x1="184" y1="229.609" x2="28.793" y2="66.032" gradientUnits="userSpaceOnUse">
            <stop stop-color="#fff" stop-opacity="0"/>
            <stop offset="1" stop-color="#fff"/>
        </linearGradient>
        <linearGradient id="m" x1="69.4" y1="175.009" x2="166" y2="82.609" gradientUnits="userSpaceOnUse">
            <stop stop-color="#fff" stop-opacity=".2"/>
            <stop offset="1" stop-color="#fff" stop-opacity=".5"/>
        </linearGradient>
        <filter id="a" x="0" y="-4" width="248" height="268" filterUnits="userSpaceOnUse" color-interpolation-filters="sRGB">
            <feFlood flood-opacity="0" result="BackgroundImageFix"/>
            <feBlend in="SourceGraphic" in2="BackgroundImageFix" result="shape"/>
            <feGaussianBlur stdDeviation="22" result="effect1_foregroundBlur_377_181"/>
        </filter>
        <filter id="f" x="67" y="220.435" width="115" height="50" filterUnits="userSpaceOnUse" color-interpolation-filters="sRGB">
            <feFlood flood-opacity="0" result="BackgroundImageFix"/>
            <feGaussianBlur in="BackgroundImageFix" stdDeviation="5"/>
            <feComposite in2="SourceAlpha" operator="in" result="effect1_backgroundBlur_377_181"/>
            <feColorMatrix in="SourceAlpha" values="0 0 0 0 0 0 0 0 0 0 0 0 0 0 0 0 0 0 127 0" result="hardAlpha"/>
            <feOffset dy="4"/>
            <feGaussianBlur stdDeviation="2"/>
            <feComposite in2="hardAlpha" operator="out"/>
            <feColorMatrix values="0 0 0 0 0 0 0 0 0 0 0 0 0 0 0 0 0 0 0.25 0"/>
            <feBlend in2="effect1_backgroundBlur_377_181" result="effect2_dropShadow_377_181"/>
            <feBlend in="SourceGraphic" in2="effect2_dropShadow_377_181" result="shape"/>
        </filter>
        <filter id="i" x="39" y="32.609" width="170" height="190" filterUnits="userSpaceOnUse" color-interpolation-filters="sRGB">
            <feFlood flood-opacity="0" result="BackgroundImageFix"/>
            <feGaussianBlur in="BackgroundImageFix" stdDeviation="5"/>
            <feComposite in2="SourceAlpha" operator="in" result="effect1_backgroundBlur_377_181"/>
            <feColorMatrix in="SourceAlpha" values="0 0 0 0 0 0 0 0 0 0 0 0 0 0 0 0 0 0 127 0" result="hardAlpha"/>
            <feOffset dy="4"/>
            <feGaussianBlur stdDeviation="2"/>
            <feComposite in2="hardAlpha" operator="out"/>
            <feColorMatrix values="0 0 0 0 0 0 0 0 0 0 0 0 0 0 0 0 0 0 0.25 0"/>
            <feBlend in2="effect1_backgroundBlur_377_181" result="effect2_dropShadow_377_181"/>
            <feBlend in="SourceGraphic" in2="effect2_dropShadow_377_181" result="shape"/>
        </filter>
        <filter id="l" x="86.558" y="86.578" width="74.885" height="73.355" filterUnits="userSpaceOnUse" color-interpolation-filters="sRGB">
            <feFlood flood-opacity="0" result="BackgroundImageFix"/>
            <feColorMatrix in="SourceAlpha" values="0 0 0 0 0 0 0 0 0 0 0 0 0 0 0 0 0 0 127 0" result="hardAlpha"/>
            <feOffset dy="1"/>
            <feGaussianBlur stdDeviation=".75"/>
            <feComposite in2="hardAlpha" operator="out"/>
            <feColorMatrix values="0 0 0 0 0 0 0 0 0 0 0 0 0 0 0 0 0 0 0.25 0"/>
            <feBlend in2="BackgroundImageFix" result="effect1_dropShadow_377_181"/>
            <feBlend in="SourceGraphic" in2="effect1_dropShadow_377_181" result="shape"/>
            <feColorMatrix in="SourceAlpha" values="0 0 0 0 0 0 0 0 0 0 0 0 0 0 0 0 0 0 127 0" result="hardAlpha"/>
            <feOffset dy="8"/>
            <feGaussianBlur stdDeviation="2"/>
            <feComposite in2="hardAlpha" operator="arithmetic" k2="-1" k3="1"/>
            <feColorMatrix values="0 0 0 0 1 0 0 0 0 1 0 0 0 0 1 0 0 0 0.25 0"/>
            <feBlend in2="shape" result="effect2_innerShadow_377_181"/>
        </filter>
    </defs>
</svg>