<svg width="279" height="279" fill="none" xmlns="http://www.w3.org/2000/svg">
    <g filter="url(#a)">
        <circle cx="139.448" cy="139.224" r="95" fill="url(#b)"/>
    </g>
    <circle cx="139.448" cy="139.224" r="90" fill="url(#c)"/>
    <g filter="url(#d)">
        <mask id="g" fill="#fff">
            <path d="M50.773 146.772c-8.285 0-15.121 6.757-13.819 14.938a94.99 94.99 0 0 0 37.979 61.919 95.012 95.012 0 0 0 70.624 16.986c8.183-1.289 12.497-9.879 9.937-17.758l-21.354-65.72a15 15 0 0 0-14.266-10.365H50.773Z"/>
        </mask>
        <path d="M50.773 146.772c-8.285 0-15.121 6.757-13.819 14.938a94.99 94.99 0 0 0 37.979 61.919 95.012 95.012 0 0 0 70.624 16.986c8.183-1.289 12.497-9.879 9.937-17.758l-21.354-65.72a15 15 0 0 0-14.266-10.365H50.773Z" fill="url(#e)" shape-rendering="crispEdges"/>
        <path d="M50.773 146.772c-8.285 0-15.121 6.757-13.819 14.938a94.99 94.99 0 0 0 37.979 61.919 95.012 95.012 0 0 0 70.624 16.986c8.183-1.289 12.497-9.879 9.937-17.758l-21.354-65.72a15 15 0 0 0-14.266-10.365H50.773Z" stroke="url(#f)" stroke-width="2" shape-rendering="crispEdges" mask="url(#g)"/>
    </g>
    <g filter="url(#h)">
        <mask id="k" fill="#fff">
            <path d="M224 129c8.284 0 15.121-6.757 13.818-14.938a95.015 95.015 0 0 0-37.978-61.919 95 95 0 0 0-70.625-16.986c-8.183 1.29-12.496 9.88-9.936 17.759l21.353 65.719A15 15 0 0 0 154.898 129H224Z"/>
        </mask>
        <path d="M224 129c8.284 0 15.121-6.757 13.818-14.938a95.015 95.015 0 0 0-37.978-61.919 95 95 0 0 0-70.625-16.986c-8.183 1.29-12.496 9.88-9.936 17.759l21.353 65.719A15 15 0 0 0 154.898 129H224Z" fill="url(#i)" shape-rendering="crispEdges"/>
        <path d="M224 129c8.284 0 15.121-6.757 13.818-14.938a95.015 95.015 0 0 0-37.978-61.919 95 95 0 0 0-70.625-16.986c-8.183 1.29-12.496 9.88-9.936 17.759l21.353 65.719A15 15 0 0 0 154.898 129H224Z" stroke="url(#j)" stroke-width="2" shape-rendering="crispEdges" mask="url(#k)"/>
    </g>
    <defs>
        <linearGradient id="b" x1="44.448" y1="44.224" x2="234.448" y2="234.224" gradientUnits="userSpaceOnUse">
            <stop stop-color="#BDBDFF" stop-opacity=".4"/>
            <stop offset="1" stop-color="#8B7DEC" stop-opacity=".4"/>
        </linearGradient>
        <linearGradient id="c" x1="49.448" y1="49.224" x2="229.448" y2="229.224" gradientUnits="userSpaceOnUse">
            <stop stop-color="#BDBDFF"/>
            <stop offset="1" stop-color="#8B7DEC"/>
        </linearGradient>
        <linearGradient id="e" x1="294.727" y1="109.795" x2="1" y2="181.545" gradientUnits="userSpaceOnUse">
            <stop stop-color="#fff" stop-opacity=".2"/>
            <stop offset="1" stop-color="#fff" stop-opacity=".5"/>
        </linearGradient>
        <linearGradient id="f" x1="121.955" y1="10.046" x2="167.92" y2="272.431" gradientUnits="userSpaceOnUse">
            <stop stop-color="#fff" stop-opacity="0"/>
            <stop offset="1" stop-color="#fff"/>
        </linearGradient>
        <linearGradient id="i" x1="20.5" y1="243" x2="239" y2="34" gradientUnits="userSpaceOnUse">
            <stop stop-color="#fff" stop-opacity=".2"/>
            <stop offset="1" stop-color="#fff" stop-opacity=".5"/>
        </linearGradient>
        <linearGradient id="j" x1="220" y1="243" x2="49" y2="38.75" gradientUnits="userSpaceOnUse">
            <stop stop-color="#fff" stop-opacity="0"/>
            <stop offset="1" stop-color="#fff"/>
        </linearGradient>
        <filter id="a" x=".448" y=".224" width="278" height="278" filterUnits="userSpaceOnUse" color-interpolation-filters="sRGB">
            <feFlood flood-opacity="0" result="BackgroundImageFix"/>
            <feBlend in="SourceGraphic" in2="BackgroundImageFix" result="shape"/>
            <feGaussianBlur stdDeviation="22" result="effect1_foregroundBlur_377_155"/>
        </filter>
        <filter id="d" x="26.794" y="136.772" width="139.436" height="115" filterUnits="userSpaceOnUse" color-interpolation-filters="sRGB">
            <feFlood flood-opacity="0" result="BackgroundImageFix"/>
            <feGaussianBlur in="BackgroundImageFix" stdDeviation="5"/>
            <feComposite in2="SourceAlpha" operator="in" result="effect1_backgroundBlur_377_155"/>
            <feColorMatrix in="SourceAlpha" values="0 0 0 0 0 0 0 0 0 0 0 0 0 0 0 0 0 0 127 0" result="hardAlpha"/>
            <feOffset dx="4"/>
            <feGaussianBlur stdDeviation="2"/>
            <feComposite in2="hardAlpha" operator="out"/>
            <feColorMatrix values="0 0 0 0 0 0 0 0 0 0 0 0 0 0 0 0 0 0 0.25 0"/>
            <feBlend in2="effect1_backgroundBlur_377_155" result="effect2_dropShadow_377_155"/>
            <feBlend in="SourceGraphic" in2="effect2_dropShadow_377_155" result="shape"/>
        </filter>
        <filter id="h" x="108.543" y="24" width="139.436" height="115" filterUnits="userSpaceOnUse" color-interpolation-filters="sRGB">
            <feFlood flood-opacity="0" result="BackgroundImageFix"/>
            <feGaussianBlur in="BackgroundImageFix" stdDeviation="5"/>
            <feComposite in2="SourceAlpha" operator="in" result="effect1_backgroundBlur_377_155"/>
            <feColorMatrix in="SourceAlpha" values="0 0 0 0 0 0 0 0 0 0 0 0 0 0 0 0 0 0 127 0" result="hardAlpha"/>
            <feOffset dy="4"/>
            <feGaussianBlur stdDeviation="2"/>
            <feComposite in2="hardAlpha" operator="out"/>
            <feColorMatrix values="0 0 0 0 0 0 0 0 0 0 0 0 0 0 0 0 0 0 0.25 0"/>
            <feBlend in2="effect1_backgroundBlur_377_155" result="effect2_dropShadow_377_155"/>
            <feBlend in="SourceGraphic" in2="effect2_dropShadow_377_155" result="shape"/>
        </filter>
    </defs>
</svg>