<svg width="184" height="181" viewBox="0 0 184 181" fill="none" xmlns="http://www.w3.org/2000/svg">
<path d="M22.5436 31.2477H156.317V159.61H22.5436V31.2477Z" fill="#C5B201"/>
<path d="M0.248077 68.6865H178.613V122.171H0.248077V68.6865Z" fill="#C5B201"/>
<path d="M10.2811 47.2929H168.58V143.564H10.2811V47.2929Z" fill="#C5B201"/>
<path d="M117.3 9.85401L117.3 181.003H61.5609L61.5609 9.854L117.3 9.85401Z" fill="#C5B201"/>
<path d="M139.595 19.4812L139.595 171.376H39.2653L39.2653 19.4811L139.595 19.4812Z" fill="#C5B201"/>
<path d="M27.3905 21.946H161.164V150.308H27.3905V21.946Z" fill="#FFE14D"/>
<path d="M5.09494 59.3849H183.459V112.869H5.09494V59.3849Z" fill="#FFE14D"/>
<path d="M15.1279 37.9913H173.426V134.263H15.1279V37.9913Z" fill="#FFE14D"/>
<path d="M122.147 0.552371L122.147 171.702H66.4077L66.4077 0.552368L122.147 0.552371Z" fill="#FFE14D"/>
<path d="M144.442 10.1795L144.442 162.074H44.1122L44.1122 10.1795L144.442 10.1795Z" fill="#FFE14D"/>
<path d="M42.8868 119.597H43.9583V120.668H42.8868V119.597ZM43.9583 119.597H45.0297V120.668H43.9583V119.597ZM43.9583 120.668H45.0297V121.74H43.9583V120.668ZM43.9583 121.74H45.0297V122.811H43.9583V121.74ZM43.9583 122.811H45.0297V123.882H43.9583V122.811ZM42.8868 122.811H43.9583V123.882H42.8868V122.811ZM42.8868 121.74H43.9583V122.811H42.8868V121.74ZM42.8868 120.668H43.9583V121.74H42.8868V120.668ZM42.8868 123.882H43.9583V124.954H42.8868V123.882ZM42.8868 124.954H43.9583V126.025H42.8868V124.954ZM42.8868 126.025H43.9583V127.097H42.8868V126.025ZM43.9583 124.954H45.0297V126.025H43.9583V124.954ZM43.9583 123.882H45.0297V124.954H43.9583V123.882ZM43.9583 126.025H45.0297V127.097H43.9583V126.025ZM43.9583 127.097H45.0297V128.168H43.9583V127.097ZM42.8868 128.168H43.9583V129.24H42.8868V128.168ZM42.8868 127.097H43.9583V128.168H42.8868V127.097ZM42.8868 129.24H43.9583V130.311H42.8868V129.24ZM43.9583 129.24H45.0297V130.311H43.9583V129.24ZM43.9583 128.168H45.0297V129.24H43.9583V128.168ZM45.0297 119.597H46.1011V120.668H45.0297V119.597ZM46.1011 119.597H47.1726V120.668H46.1011V119.597ZM47.1726 119.597H48.244V120.668H47.1726V119.597ZM48.244 119.597H49.3154V120.668H48.244V119.597ZM47.1726 120.668H48.244V121.74H47.1726V120.668ZM46.1011 120.668H47.1726V121.74H46.1011V120.668ZM45.0297 120.668H46.1011V121.74H45.0297V120.668ZM45.0297 124.954H46.1011V126.025H45.0297V124.954ZM46.1011 123.882H47.1726V124.954H46.1011V123.882ZM45.0297 123.882H46.1011V124.954H45.0297V123.882ZM46.1011 124.954H47.1726V126.025H46.1011V124.954ZM48.244 120.668H49.3154V121.74H48.244V120.668ZM47.1726 123.882H48.244V124.954H47.1726V123.882ZM47.1726 124.954H48.244V126.025H47.1726V124.954ZM50.3868 119.597H51.4583V120.668H50.3868V119.597ZM51.4583 119.597H52.5297V120.668H51.4583V119.597ZM51.4583 120.668H52.5297V121.74H51.4583V120.668ZM51.4583 121.74H52.5297V122.811H51.4583V121.74ZM51.4583 122.811H52.5297V123.882H51.4583V122.811ZM50.3868 122.811H51.4583V123.882H50.3868V122.811ZM50.3868 121.74H51.4583V122.811H50.3868V121.74ZM50.3868 120.668H51.4583V121.74H50.3868V120.668ZM50.3868 123.882H51.4583V124.954H50.3868V123.882ZM50.3868 124.954H51.4583V126.025H50.3868V124.954ZM50.3868 126.025H51.4583V127.097H50.3868V126.025ZM51.4583 124.954H52.5297V126.025H51.4583V124.954ZM51.4583 123.882H52.5297V124.954H51.4583V123.882ZM51.4583 126.025H52.5297V127.097H51.4583V126.025ZM51.4583 127.097H52.5297V128.168H51.4583V127.097ZM50.3868 128.168H51.4583V129.24H50.3868V128.168ZM50.3868 127.097H51.4583V128.168H50.3868V127.097ZM50.3868 129.24H51.4583V130.311H50.3868V129.24ZM51.4583 129.24H52.5297V130.311H51.4583V129.24ZM51.4583 128.168H52.5297V129.24H51.4583V128.168ZM52.5297 129.24H53.6011V130.311H52.5297V129.24ZM53.6011 129.24H54.6726V130.311H53.6011V129.24ZM54.6726 129.24H55.744V130.311H54.6726V129.24ZM54.6726 128.168H55.744V129.24H54.6726V128.168ZM53.6011 128.168H54.6726V129.24H53.6011V128.168ZM52.5297 128.168H53.6011V129.24H52.5297V128.168ZM52.5297 119.597H53.6011V120.668H52.5297V119.597ZM53.6011 119.597H54.6726V120.668H53.6011V119.597ZM54.6726 119.597H55.744V120.668H54.6726V119.597ZM55.744 119.597H56.8154V120.668H55.744V119.597ZM54.6726 120.668H55.744V121.74H54.6726V120.668ZM53.6011 120.668H54.6726V121.74H53.6011V120.668ZM52.5297 120.668H53.6011V121.74H52.5297V120.668ZM52.5297 124.954H53.6011V126.025H52.5297V124.954ZM53.6011 123.882H54.6726V124.954H53.6011V123.882ZM52.5297 123.882H53.6011V124.954H52.5297V123.882ZM53.6011 124.954H54.6726V126.025H53.6011V124.954ZM55.744 120.668H56.8154V121.74H55.744V120.668ZM55.744 128.168H56.8154V129.24H55.744V128.168ZM55.744 129.24H56.8154V130.311H55.744V129.24ZM54.6726 123.882H55.744V124.954H54.6726V123.882ZM54.6726 124.954H55.744V126.025H54.6726V124.954ZM57.8868 119.597H58.9583V120.668H57.8868V119.597ZM58.9583 119.597H60.0297V120.668H58.9583V119.597ZM58.9583 120.668H60.0297V121.74H58.9583V120.668ZM58.9583 121.74H60.0297V122.811H58.9583V121.74ZM58.9583 122.811H60.0297V123.882H58.9583V122.811ZM57.8868 122.811H58.9583V123.882H57.8868V122.811ZM57.8868 121.74H58.9583V122.811H57.8868V121.74ZM57.8868 120.668H58.9583V121.74H57.8868V120.668ZM57.8868 123.882H58.9583V124.954H57.8868V123.882ZM57.8868 124.954H58.9583V126.025H57.8868V124.954ZM57.8868 126.025H58.9583V127.097H57.8868V126.025ZM58.9583 124.954H60.0297V126.025H58.9583V124.954ZM58.9583 123.882H60.0297V124.954H58.9583V123.882ZM58.9583 126.025H60.0297V127.097H58.9583V126.025ZM58.9583 127.097H60.0297V128.168H58.9583V127.097ZM57.8868 128.168H58.9583V129.24H57.8868V128.168ZM57.8868 127.097H58.9583V128.168H57.8868V127.097ZM57.8868 129.24H58.9583V130.311H57.8868V129.24ZM58.9583 129.24H60.0297V130.311H58.9583V129.24ZM58.9583 128.168H60.0297V129.24H58.9583V128.168ZM60.0297 129.24H61.1011V130.311H60.0297V129.24ZM61.1011 129.24H62.1726V130.311H61.1011V129.24ZM62.1726 129.24H63.244V130.311H62.1726V129.24ZM62.1726 128.168H63.244V129.24H62.1726V128.168ZM61.1011 128.168H62.1726V129.24H61.1011V128.168ZM60.0297 128.168H61.1011V129.24H60.0297V128.168ZM60.0297 119.597H61.1011V120.668H60.0297V119.597ZM61.1011 119.597H62.1726V120.668H61.1011V119.597ZM62.1726 119.597H63.244V120.668H62.1726V119.597ZM63.244 119.597H64.3154V120.668H63.244V119.597ZM62.1726 120.668H63.244V121.74H62.1726V120.668ZM61.1011 120.668H62.1726V121.74H61.1011V120.668ZM60.0297 120.668H61.1011V121.74H60.0297V120.668ZM60.0297 124.954H61.1011V126.025H60.0297V124.954ZM61.1011 123.882H62.1726V124.954H61.1011V123.882ZM60.0297 123.882H61.1011V124.954H60.0297V123.882ZM61.1011 124.954H62.1726V126.025H61.1011V124.954ZM63.244 120.668H64.3154V121.74H63.244V120.668ZM63.244 128.168H64.3154V129.24H63.244V128.168ZM63.244 129.24H64.3154V130.311H63.244V129.24ZM62.1726 123.882H63.244V124.954H62.1726V123.882ZM62.1726 124.954H63.244V126.025H62.1726V124.954ZM65.3868 119.597H66.4583V120.668H65.3868V119.597ZM66.4583 119.597H67.5297V120.668H66.4583V119.597ZM66.4583 120.668H67.5297V121.74H66.4583V120.668ZM66.4583 121.74H67.5297V122.811H66.4583V121.74ZM66.4583 122.811H67.5297V123.882H66.4583V122.811ZM65.3868 122.811H66.4583V123.882H65.3868V122.811ZM65.3868 121.74H66.4583V122.811H65.3868V121.74ZM65.3868 120.668H66.4583V121.74H65.3868V120.668ZM65.3868 123.882H66.4583V124.954H65.3868V123.882ZM65.3868 124.954H66.4583V126.025H65.3868V124.954ZM65.3868 126.025H66.4583V127.097H65.3868V126.025ZM66.4583 124.954H67.5297V126.025H66.4583V124.954ZM66.4583 123.882H67.5297V124.954H66.4583V123.882ZM66.4583 126.025H67.5297V127.097H66.4583V126.025ZM66.4583 127.097H67.5297V128.168H66.4583V127.097ZM65.3868 128.168H66.4583V129.24H65.3868V128.168ZM65.3868 127.097H66.4583V128.168H65.3868V127.097ZM65.3868 129.24H66.4583V130.311H65.3868V129.24ZM66.4583 129.24H67.5297V130.311H66.4583V129.24ZM66.4583 128.168H67.5297V129.24H66.4583V128.168ZM67.5297 129.24H68.6011V130.311H67.5297V129.24ZM68.6011 129.24H69.6726V130.311H68.6011V129.24ZM69.6726 129.24H70.744V130.311H69.6726V129.24ZM69.6726 128.168H70.744V129.24H69.6726V128.168ZM68.6011 128.168H69.6726V129.24H68.6011V128.168ZM67.5297 128.168H68.6011V129.24H67.5297V128.168ZM71.8126 129.24H72.8841V130.311H71.8126V129.24ZM72.8841 129.24H73.9555V130.311H72.8841V129.24ZM72.8841 128.168H73.9555V129.24H72.8841V128.168ZM72.8841 127.097H73.9555V128.168H72.8841V127.097ZM72.8841 126.025H73.9555V127.097H72.8841V126.025ZM72.8841 124.954H73.9555V126.025H72.8841V124.954ZM72.8841 123.882H73.9555V124.954H72.8841V123.882ZM71.8126 123.882H72.8841V124.954H71.8126V123.882ZM71.8126 124.954H72.8841V126.025H71.8126V124.954ZM71.8126 126.025H72.8841V127.097H71.8126V126.025ZM71.8126 127.097H72.8841V128.168H71.8126V127.097ZM71.8126 128.168H72.8841V129.24H71.8126V128.168ZM71.8126 122.811H72.8841V123.882H71.8126V122.811ZM72.8841 122.811H73.9555V123.882H72.8841V122.811ZM72.8841 121.74H73.9555V122.811H72.8841V121.74ZM72.8841 120.668H73.9555V121.74H72.8841V120.668ZM72.8841 119.597H73.9555V120.668H72.8841V119.597ZM71.8126 119.597H72.8841V120.668H71.8126V119.597ZM71.8126 120.668H72.8841V121.74H71.8126V120.668ZM71.8126 121.74H72.8841V122.811H71.8126V121.74ZM78.2496 124.954H79.321V126.025H78.2496V124.954ZM78.2496 123.882H79.321V124.954H78.2496V123.882ZM79.321 123.882H80.3924V124.954H79.321V123.882ZM79.321 124.954H80.3924V126.025H79.321V124.954ZM79.321 126.025H80.3924V127.097H79.321V126.025ZM78.2496 126.025H79.321V127.097H78.2496V126.025ZM78.2496 121.74H79.321V122.811H78.2496V121.74ZM78.2496 122.811H79.321V123.882H78.2496V122.811ZM77.1781 123.882H78.2496V124.954H77.1781V123.882ZM77.1781 122.811H78.2496V123.882H77.1781V122.811ZM77.1781 121.74H78.2496V122.811H77.1781V121.74ZM75.0353 119.597H76.1067V120.668H75.0353V119.597ZM76.1067 119.597H77.1781V120.668H76.1067V119.597ZM77.1781 119.597H78.2496V120.668H77.1781V119.597ZM77.1781 120.668H78.2496V121.74H77.1781V120.668ZM76.1067 120.668H77.1781V121.74H76.1067V120.668ZM75.0353 120.668H76.1067V121.74H75.0353V120.668ZM75.0353 121.74H76.1067V122.811H75.0353V121.74ZM76.1067 121.74H77.1781V122.811H76.1067V121.74ZM76.1067 122.811H77.1781V123.882H76.1067V122.811ZM76.1067 123.882H77.1781V124.954H76.1067V123.882ZM75.0353 123.882H76.1067V124.954H75.0353V123.882ZM75.0353 122.811H76.1067V123.882H75.0353V122.811ZM75.0353 124.954H76.1067V126.025H75.0353V124.954ZM76.1067 124.954H77.1781V126.025H76.1067V124.954ZM76.1067 126.025H77.1781V127.097H76.1067V126.025ZM76.1067 127.097H77.1781V128.168H76.1067V127.097ZM76.1067 128.168H77.1781V129.24H76.1067V128.168ZM76.1067 129.24H77.1781V130.311H76.1067V129.24ZM75.0353 129.24H76.1067V130.311H75.0353V129.24ZM75.0353 128.168H76.1067V129.24H75.0353V128.168ZM75.0353 127.097H76.1067V128.168H75.0353V127.097ZM75.0353 126.025H76.1067V127.097H75.0353V126.025ZM79.321 127.097H80.3924V128.168H79.321V127.097ZM79.321 128.168H80.3924V129.24H79.321V128.168ZM80.3924 127.097H81.4639V128.168H80.3924V127.097ZM80.3924 126.025H81.4639V127.097H80.3924V126.025ZM80.3924 128.168H81.4639V129.24H80.3924V128.168ZM80.3924 129.24H81.4639V130.311H80.3924V129.24ZM81.4639 129.24H82.5353V130.311H81.4639V129.24ZM82.5353 129.24H83.6067V130.311H82.5353V129.24ZM82.5353 128.168H83.6067V129.24H82.5353V128.168ZM82.5353 127.097H83.6067V128.168H82.5353V127.097ZM81.4639 127.097H82.5353V128.168H81.4639V127.097ZM81.4639 128.168H82.5353V129.24H81.4639V128.168ZM81.4639 126.025H82.5353V127.097H81.4639V126.025ZM82.5353 124.954H83.6067V126.025H82.5353V124.954ZM82.5353 123.882H83.6067V124.954H82.5353V123.882ZM82.5353 126.025H83.6067V127.097H82.5353V126.025ZM81.4639 124.954H82.5353V126.025H81.4639V124.954ZM81.4639 123.882H82.5353V124.954H81.4639V123.882ZM81.4639 122.811H82.5353V123.882H81.4639V122.811ZM82.5353 122.811H83.6067V123.882H82.5353V122.811ZM82.5353 121.74H83.6067V122.811H82.5353V121.74ZM81.4639 119.597H82.5353V120.668H81.4639V119.597ZM82.5353 119.597H83.6067V120.668H82.5353V119.597ZM82.5353 120.668H83.6067V121.74H82.5353V120.668ZM81.4639 120.668H82.5353V121.74H81.4639V120.668ZM81.4639 121.74H82.5353V122.811H81.4639V121.74ZM86.8266 119.597H87.898V120.668H86.8266V119.597ZM85.7552 119.597H86.8266V120.668H85.7552V119.597ZM85.7552 120.668H86.8266V121.74H85.7552V120.668ZM86.8266 120.668H87.898V121.74H86.8266V120.668ZM87.898 120.668H88.9694V121.74H87.898V120.668ZM87.898 119.597H88.9694V120.668H87.898V119.597ZM88.9694 119.597H90.0409V120.668H88.9694V119.597ZM90.0409 119.597H91.1123V120.668H90.0409V119.597ZM90.0409 120.668H91.1123V121.74H90.0409V120.668ZM88.9694 120.668H90.0409V121.74H88.9694V120.668ZM90.0409 121.74H91.1123V122.811H90.0409V121.74ZM91.1123 120.668H92.1837V121.74H91.1123V120.668ZM91.1123 121.74H92.1837V122.811H91.1123V121.74ZM91.1123 127.097H92.1837V128.168H91.1123V127.097ZM91.1123 128.168H92.1837V129.24H91.1123V128.168ZM90.0409 128.168H91.1123V129.24H90.0409V128.168ZM90.0409 127.097H91.1123V128.168H90.0409V127.097ZM88.9694 128.168H90.0409V129.24H88.9694V128.168ZM90.0409 129.24H91.1123V130.311H90.0409V129.24ZM88.9694 129.24H90.0409V130.311H88.9694V129.24ZM87.898 129.24H88.9694V130.311H87.898V129.24ZM87.898 128.168H88.9694V129.24H87.898V128.168ZM86.8266 129.24H87.898V130.311H86.8266V129.24ZM85.7552 129.24H86.8266V130.311H85.7552V129.24ZM85.7552 128.168H86.8266V129.24H85.7552V128.168ZM86.8266 128.168H87.898V129.24H86.8266V128.168ZM86.8266 127.097H87.898V128.168H86.8266V127.097ZM85.7552 127.097H86.8266V128.168H85.7552V127.097ZM84.6837 128.168H85.7552V129.24H84.6837V128.168ZM84.6837 127.097H85.7552V128.168H84.6837V127.097ZM84.6837 126.025H85.7552V127.097H84.6837V126.025ZM84.6837 124.954H85.7552V126.025H84.6837V124.954ZM84.6837 123.882H85.7552V124.954H84.6837V123.882ZM84.6837 122.811H85.7552V123.882H84.6837V122.811ZM84.6837 121.74H85.7552V122.811H84.6837V121.74ZM85.7552 121.74H86.8266V122.811H85.7552V121.74ZM84.6837 120.668H85.7552V121.74H84.6837V120.668ZM86.8266 121.74H87.898V122.811H86.8266V121.74ZM85.7552 122.811H86.8266V123.882H85.7552V122.811ZM85.7552 123.882H86.8266V124.954H85.7552V123.882ZM85.7552 124.954H86.8266V126.025H85.7552V124.954ZM85.7552 126.025H86.8266V127.097H85.7552V126.025ZM91.1123 126.025H92.1837V127.097H91.1123V126.025ZM90.0409 126.025H91.1123V127.097H90.0409V126.025ZM90.0409 124.954H91.1123V126.025H90.0409V124.954ZM91.1123 124.954H92.1837V126.025H91.1123V124.954ZM91.1123 123.882H92.1837V124.954H91.1123V123.882ZM90.0409 123.882H91.1123V124.954H90.0409V123.882ZM88.9694 123.882H90.0409V124.954H88.9694V123.882ZM87.898 123.882H88.9694V124.954H87.898V123.882ZM87.898 124.954H88.9694V126.025H87.898V124.954ZM88.9694 124.954H90.0409V126.025H88.9694V124.954ZM97.5353 119.597H98.6067V120.668H97.5353V119.597ZM98.6067 119.597H99.6781V120.668H98.6067V119.597ZM98.6067 120.668H99.6781V121.74H98.6067V120.668ZM98.6067 121.74H99.6781V122.811H98.6067V121.74ZM98.6067 122.811H99.6781V123.882H98.6067V122.811ZM97.5353 122.811H98.6067V123.882H97.5353V122.811ZM97.5353 121.74H98.6067V122.811H97.5353V121.74ZM97.5353 120.668H98.6067V121.74H97.5353V120.668ZM97.5353 123.882H98.6067V124.954H97.5353V123.882ZM97.5353 124.954H98.6067V126.025H97.5353V124.954ZM97.5353 126.025H98.6067V127.097H97.5353V126.025ZM98.6067 124.954H99.6781V126.025H98.6067V124.954ZM98.6067 123.882H99.6781V124.954H98.6067V123.882ZM98.6067 126.025H99.6781V127.097H98.6067V126.025ZM98.6067 127.097H99.6781V128.168H98.6067V127.097ZM97.5353 128.168H98.6067V129.24H97.5353V128.168ZM97.5353 127.097H98.6067V128.168H97.5353V127.097ZM97.5353 129.24H98.6067V130.311H97.5353V129.24ZM98.6067 129.24H99.6781V130.311H98.6067V129.24ZM98.6067 128.168H99.6781V129.24H98.6067V128.168ZM99.6781 129.24H100.75V130.311H99.6781V129.24ZM100.75 129.24H101.821V130.311H100.75V129.24ZM101.821 129.24H102.892V130.311H101.821V129.24ZM101.821 128.168H102.892V129.24H101.821V128.168ZM100.75 128.168H101.821V129.24H100.75V128.168ZM99.6781 128.168H100.75V129.24H99.6781V128.168ZM105.032 120.668H106.104V121.74H105.032V120.668ZM109.318 120.668H110.39V121.74H109.318V120.668ZM109.318 121.74H110.39V122.811H109.318V121.74ZM110.39 120.668H111.461V121.74H110.39V120.668ZM110.39 121.74H111.461V122.811H110.39V121.74ZM110.39 122.811H111.461V123.882H110.39V122.811ZM110.39 123.882H111.461V124.954H110.39V123.882ZM110.39 124.954H111.461V126.025H110.39V124.954ZM110.39 126.025H111.461V127.097H110.39V126.025ZM110.39 127.097H111.461V128.168H110.39V127.097ZM110.39 128.168H111.461V129.24H110.39V128.168ZM109.318 128.168H110.39V129.24H109.318V128.168ZM109.318 127.097H110.39V128.168H109.318V127.097ZM109.318 126.025H110.39V127.097H109.318V126.025ZM109.318 124.954H110.39V126.025H109.318V124.954ZM109.318 123.882H110.39V124.954H109.318V123.882ZM109.318 122.811H110.39V123.882H109.318V122.811ZM108.247 127.097H109.318V128.168H108.247V127.097ZM108.247 128.168H109.318V129.24H108.247V128.168ZM109.318 129.24H110.39V130.311H109.318V129.24ZM108.247 129.24H109.318V130.311H108.247V129.24ZM107.175 129.24H108.247V130.311H107.175V129.24ZM107.175 128.168H108.247V129.24H107.175V128.168ZM106.104 129.24H107.175V130.311H106.104V129.24ZM105.032 129.24H106.104V130.311H105.032V129.24ZM105.032 128.168H106.104V129.24H105.032V128.168ZM106.104 128.168H107.175V129.24H106.104V128.168ZM106.104 127.097H107.175V128.168H106.104V127.097ZM105.032 127.097H106.104V128.168H105.032V127.097ZM103.961 128.168H105.032V129.24H103.961V128.168ZM103.961 127.097H105.032V128.168H103.961V127.097ZM103.961 126.025H105.032V127.097H103.961V126.025ZM103.961 124.954H105.032V126.025H103.961V124.954ZM103.961 123.882H105.032V124.954H103.961V123.882ZM103.961 122.811H105.032V123.882H103.961V122.811ZM103.961 121.74H105.032V122.811H103.961V121.74ZM105.032 121.74H106.104V122.811H105.032V121.74ZM103.961 120.668H105.032V121.74H103.961V120.668ZM105.032 122.811H106.104V123.882H105.032V122.811ZM105.032 123.882H106.104V124.954H105.032V123.882ZM105.032 124.954H106.104V126.025H105.032V124.954ZM105.032 126.025H106.104V127.097H105.032V126.025ZM103.961 119.597H105.032V120.668H103.961V119.597ZM105.032 119.597H106.104V120.668H105.032V119.597ZM109.318 119.597H110.39V120.668H109.318V119.597ZM110.39 119.597H111.461V120.668H110.39V119.597ZM114.678 119.597H115.75V120.668H114.678V119.597ZM113.607 119.597H114.678V120.668H113.607V119.597ZM113.607 120.668H114.678V121.74H113.607V120.668ZM114.678 120.668H115.75V121.74H114.678V120.668ZM115.75 120.668H116.821V121.74H115.75V120.668ZM115.75 119.597H116.821V120.668H115.75V119.597ZM116.821 119.597H117.892V120.668H116.821V119.597ZM117.892 119.597H118.964V120.668H117.892V119.597ZM117.892 120.668H118.964V121.74H117.892V120.668ZM116.821 120.668H117.892V121.74H116.821V120.668ZM117.892 121.74H118.964V122.811H117.892V121.74ZM118.964 120.668H120.035V121.74H118.964V120.668ZM118.964 121.74H120.035V122.811H118.964V121.74ZM118.964 127.097H120.035V128.168H118.964V127.097ZM118.964 128.168H120.035V129.24H118.964V128.168ZM117.892 128.168H118.964V129.24H117.892V128.168ZM117.892 127.097H118.964V128.168H117.892V127.097ZM116.821 128.168H117.892V129.24H116.821V128.168ZM117.892 129.24H118.964V130.311H117.892V129.24ZM116.821 129.24H117.892V130.311H116.821V129.24ZM115.75 129.24H116.821V130.311H115.75V129.24ZM115.75 128.168H116.821V129.24H115.75V128.168ZM114.678 129.24H115.75V130.311H114.678V129.24ZM113.607 129.24H114.678V130.311H113.607V129.24ZM113.607 128.168H114.678V129.24H113.607V128.168ZM114.678 128.168H115.75V129.24H114.678V128.168ZM114.678 127.097H115.75V128.168H114.678V127.097ZM113.607 127.097H114.678V128.168H113.607V127.097ZM112.535 128.168H113.607V129.24H112.535V128.168ZM112.535 127.097H113.607V128.168H112.535V127.097ZM112.535 126.025H113.607V127.097H112.535V126.025ZM112.535 124.954H113.607V126.025H112.535V124.954ZM112.535 123.882H113.607V124.954H112.535V123.882ZM112.535 122.811H113.607V123.882H112.535V122.811ZM112.535 121.74H113.607V122.811H112.535V121.74ZM113.607 121.74H114.678V122.811H113.607V121.74ZM112.535 120.668H113.607V121.74H112.535V120.668ZM114.678 121.74H115.75V122.811H114.678V121.74ZM113.607 122.811H114.678V123.882H113.607V122.811ZM113.607 123.882H114.678V124.954H113.607V123.882ZM113.607 124.954H114.678V126.025H113.607V124.954ZM113.607 126.025H114.678V127.097H113.607V126.025ZM122.181 119.597H123.252V120.668H122.181V119.597ZM121.11 119.597H122.181V120.668H121.11V119.597ZM121.11 120.668H122.181V121.74H121.11V120.668ZM121.11 121.74H122.181V122.811H121.11V121.74ZM121.11 122.811H122.181V123.882H121.11V122.811ZM121.11 123.882H122.181V124.954H121.11V123.882ZM121.11 124.954H122.181V126.025H121.11V124.954ZM121.11 126.025H122.181V127.097H121.11V126.025ZM121.11 127.097H122.181V128.168H121.11V127.097ZM121.11 128.168H122.181V129.24H121.11V128.168ZM121.11 129.24H122.181V130.311H121.11V129.24ZM122.181 129.24H123.252V130.311H122.181V129.24ZM122.181 128.168H123.252V129.24H122.181V128.168ZM122.181 127.097H123.252V128.168H122.181V127.097ZM122.181 126.025H123.252V127.097H122.181V126.025ZM122.181 124.954H123.252V126.025H122.181V124.954ZM122.181 123.882H123.252V124.954H122.181V123.882ZM122.181 122.811H123.252V123.882H122.181V122.811ZM122.181 121.74H123.252V122.811H122.181V121.74ZM122.181 120.668H123.252V121.74H122.181V120.668ZM123.252 124.954H124.324V126.025H123.252V124.954ZM124.324 124.954H125.395V126.025H124.324V124.954ZM124.324 123.882H125.395V124.954H124.324V123.882ZM123.252 123.882H124.324V124.954H123.252V123.882ZM124.324 122.811H125.395V123.882H124.324V122.811ZM125.395 122.811H126.467V123.882H125.395V122.811ZM125.395 121.74H126.467V122.811H125.395V121.74ZM125.395 120.668H126.467V121.74H125.395V120.668ZM125.395 119.597H126.467V120.668H125.395V119.597ZM126.467 119.597H127.538V120.668H126.467V119.597ZM126.467 120.668H127.538V121.74H126.467V120.668ZM126.467 121.74H127.538V122.811H126.467V121.74ZM124.324 126.025H125.395V127.097H124.324V126.025ZM125.395 126.025H126.467V127.097H125.395V126.025ZM125.395 127.097H126.467V128.168H125.395V127.097ZM125.395 128.168H126.467V129.24H125.395V128.168ZM125.395 129.24H126.467V130.311H125.395V129.24ZM126.467 129.24H127.538V130.311H126.467V129.24ZM126.467 128.168H127.538V129.24H126.467V128.168ZM126.467 127.097H127.538V128.168H126.467V127.097ZM126.467 126.025H127.538V127.097H126.467V126.025ZM125.395 124.954H126.467V126.025H125.395V124.954ZM128.61 119.597H129.681V120.668H128.61V119.597ZM129.681 119.597H130.752V120.668H129.681V119.597ZM129.681 120.668H130.752V121.74H129.681V120.668ZM129.681 121.74H130.752V122.811H129.681V121.74ZM128.61 121.74H129.681V122.811H128.61V121.74ZM128.61 120.668H129.681V121.74H128.61V120.668ZM128.61 122.811H129.681V123.882H128.61V122.811ZM128.61 123.882H129.681V124.954H128.61V123.882ZM129.681 123.882H130.752V124.954H129.681V123.882ZM129.681 122.811H130.752V123.882H129.681V122.811ZM129.681 124.954H130.752V126.025H129.681V124.954ZM130.752 124.954H131.824V126.025H130.752V124.954ZM130.752 123.882H131.824V124.954H130.752V123.882ZM130.752 126.025H131.824V127.097H130.752V126.025ZM131.824 126.025H132.895V127.097H131.824V126.025ZM131.824 124.954H132.895V126.025H131.824V124.954ZM132.895 124.954H133.967V126.025H132.895V124.954ZM132.895 126.025H133.967V127.097H132.895V126.025ZM133.967 126.025H135.038V127.097H133.967V126.025ZM133.967 124.954H135.038V126.025H133.967V124.954ZM133.967 123.882H135.038V124.954H133.967V123.882ZM135.038 123.882H136.11V124.954H135.038V123.882ZM135.038 124.954H136.11V126.025H135.038V124.954ZM135.038 122.811H136.11V123.882H135.038V122.811ZM135.038 121.74H136.11V122.811H135.038V121.74ZM135.038 120.668H136.11V121.74H135.038V120.668ZM135.038 119.597H136.11V120.668H135.038V119.597ZM136.11 119.597H137.181V120.668H136.11V119.597ZM136.11 120.668H137.181V121.74H136.11V120.668ZM136.11 121.74H137.181V122.811H136.11V121.74ZM136.11 122.811H137.181V123.882H136.11V122.811ZM136.11 123.882H137.181V124.954H136.11V123.882ZM131.824 127.097H132.895V128.168H131.824V127.097ZM131.824 128.168H132.895V129.24H131.824V128.168ZM131.824 129.24H132.895V130.311H131.824V129.24ZM132.895 129.24H133.967V130.311H132.895V129.24ZM132.895 128.168H133.967V129.24H132.895V128.168ZM132.895 127.097H133.967V128.168H132.895V127.097ZM140.401 128.168H141.472V129.24H140.401V128.168ZM141.472 128.168H142.544V129.24H141.472V128.168ZM141.472 129.24H142.544V130.311H141.472V129.24ZM140.401 129.24H141.472V130.311H140.401V129.24ZM140.401 126.025H141.472V127.097H140.401V126.025ZM141.472 126.025H142.544V127.097H141.472V126.025ZM141.472 124.954H142.544V126.025H141.472V124.954ZM140.401 124.954H141.472V126.025H140.401V124.954ZM140.401 123.882H141.472V124.954H140.401V123.882ZM141.472 123.882H142.544V124.954H141.472V123.882ZM142.544 123.882H143.615V124.954H142.544V123.882ZM141.472 122.811H142.544V123.882H141.472V122.811ZM142.544 122.811H143.615V123.882H142.544V122.811ZM143.615 122.811H144.687V123.882H143.615V122.811ZM143.615 121.74H144.687V122.811H143.615V121.74ZM142.544 121.74H143.615V122.811H142.544V121.74ZM142.544 120.668H143.615V121.74H142.544V120.668ZM143.615 120.668H144.687V121.74H143.615V120.668ZM142.544 119.597H143.615V120.668H142.544V119.597ZM141.472 119.597H142.544V120.668H141.472V119.597ZM141.472 120.668H142.544V121.74H141.472V120.668ZM140.401 120.668H141.472V121.74H140.401V120.668ZM139.329 120.668H140.401V121.74H139.329V120.668ZM139.329 119.597H140.401V120.668H139.329V119.597ZM140.401 119.597H141.472V120.668H140.401V119.597ZM138.258 120.668H139.329V121.74H138.258V120.668ZM138.258 121.74H139.329V122.811H138.258V121.74ZM139.329 121.74H140.401V122.811H139.329V121.74Z" fill="#001925"/>
<path d="M35.2316 67.5877H37.6424V69.9984H35.2316V67.5877ZM37.6424 67.5877H40.0531V69.9984H37.6424V67.5877ZM40.0531 67.5877H42.4638V69.9984H40.0531V67.5877ZM42.4638 67.5877H44.8745V69.9984H42.4638V67.5877ZM37.6424 69.9984H40.0531V72.4091H37.6424V69.9984ZM35.2316 69.9984H37.6424V72.4091H35.2316V69.9984ZM40.0531 69.9984H42.4638V72.4091H40.0531V69.9984ZM42.4638 69.9984H44.8745V72.4091H42.4638V69.9984ZM44.8745 72.4091H47.2852V74.8198H44.8745V72.4091ZM47.2852 69.9984H49.6959V72.4091H47.2852V69.9984ZM44.8745 69.9984H47.2852V72.4091H44.8745V69.9984ZM47.2852 72.4091H49.6959V74.8198H47.2852V72.4091ZM44.8745 74.8198H47.2852V77.2305H44.8745V74.8198ZM47.2852 74.8198H49.6959V77.2305H47.2852V74.8198ZM47.2852 77.2305H49.6959V79.6412H47.2852V77.2305ZM44.8745 77.2305H47.2852V79.6412H44.8745V77.2305ZM35.2316 77.2305H37.6424V79.6412H35.2316V77.2305ZM32.8209 77.2305H35.2316V79.6412H32.8209V77.2305ZM32.8209 74.8198H35.2316V77.2305H32.8209V74.8198ZM35.2316 74.8198H37.6424V77.2305H35.2316V74.8198ZM35.2316 72.4091H37.6424V74.8198H35.2316V72.4091ZM32.8209 72.4091H35.2316V74.8198H32.8209V72.4091ZM32.8209 69.9984H35.2316V72.4091H32.8209V69.9984ZM32.8209 67.5877H35.2316V69.9984H32.8209V67.5877ZM32.8209 65.1769H35.2316V67.5877H32.8209V65.1769ZM35.2316 65.1769H37.6424V67.5877H35.2316V65.1769ZM32.8209 55.5341H35.2316V57.9448H32.8209V55.5341ZM35.2316 55.5341H37.6424V57.9448H35.2316V55.5341ZM37.6424 55.5341H40.0531V57.9448H37.6424V55.5341ZM40.0531 55.5341H42.4638V57.9448H40.0531V55.5341ZM42.4638 55.5341H44.8745V57.9448H42.4638V55.5341ZM44.8745 55.5341H47.2852V57.9448H44.8745V55.5341ZM44.8745 57.9448H47.2852V60.3555H44.8745V57.9448ZM42.4638 57.9448H44.8745V60.3555H42.4638V57.9448ZM40.0531 57.9448H42.4638V60.3555H40.0531V57.9448ZM37.6424 57.9448H40.0531V60.3555H37.6424V57.9448ZM35.2316 57.9448H37.6424V60.3555H35.2316V57.9448ZM32.8209 57.9448H35.2316V60.3555H32.8209V57.9448ZM32.8209 60.3555H35.2316V62.7662H32.8209V60.3555ZM32.8209 62.7662H35.2316V65.1769H32.8209V62.7662ZM35.2316 62.7662H37.6424V65.1769H35.2316V62.7662ZM35.2316 60.3555H37.6424V62.7662H35.2316V60.3555ZM44.8745 60.3555H47.2852V62.7662H44.8745V60.3555ZM47.2852 60.3555H49.6959V62.7662H47.2852V60.3555ZM47.2852 57.9448H49.6959V60.3555H47.2852V57.9448ZM47.2852 62.7662H49.6959V65.1769H47.2852V62.7662ZM44.8745 62.7662H47.2852V65.1769H44.8745V62.7662ZM44.8745 65.1769H47.2852V67.5877H44.8745V65.1769ZM47.2852 65.1769H49.6959V67.5877H47.2852V65.1769ZM44.8745 67.5877H47.2852V69.9984H44.8745V67.5877ZM56.9344 57.9448H59.3451V60.3555H56.9344V57.9448ZM59.3451 57.9448H61.7558V60.3555H59.3451V57.9448ZM59.3451 55.5341H61.7558V57.9448H59.3451V55.5341ZM61.7558 57.9448H64.1665V60.3555H61.7558V57.9448ZM61.7558 60.3555H64.1665V62.7662H61.7558V60.3555ZM64.1665 60.3555H66.5772V62.7662H64.1665V60.3555ZM59.3451 60.3555H61.7558V62.7662H59.3451V60.3555ZM56.9344 60.3555H59.3451V62.7662H56.9344V60.3555ZM54.5236 60.3555H56.9344V62.7662H54.5236V60.3555ZM54.5236 62.7662H56.9344V65.1769H54.5236V62.7662ZM52.1129 62.7662H54.5236V65.1769H52.1129V62.7662ZM56.9344 62.7662H59.3451V65.1769H56.9344V62.7662ZM54.5236 65.1769H56.9344V67.5877H54.5236V65.1769ZM54.5236 67.5877H56.9344V69.9984H54.5236V67.5877ZM54.5236 69.9984H56.9344V72.4091H54.5236V69.9984ZM56.9344 69.9984H59.3451V72.4091H56.9344V69.9984ZM59.3451 69.9984H61.7558V72.4091H59.3451V69.9984ZM61.7558 69.9984H64.1665V72.4091H61.7558V69.9984ZM64.1665 69.9984H66.5772V72.4091H64.1665V69.9984ZM66.5772 69.9984H68.9879V72.4091H66.5772V69.9984ZM66.5772 67.5877H68.9879V69.9984H66.5772V67.5877ZM66.5772 65.1769H68.9879V67.5877H66.5772V65.1769ZM66.5772 62.7662H68.9879V65.1769H66.5772V62.7662ZM64.1665 62.7662H66.5772V65.1769H64.1665V62.7662ZM61.7558 62.7662H64.1665V65.1769H61.7558V62.7662ZM64.1665 65.1769H66.5772V67.5877H64.1665V65.1769ZM64.1665 67.5877H66.5772V69.9984H64.1665V67.5877ZM64.1665 72.4091H66.5772V74.8198H64.1665V72.4091ZM66.5772 72.4091H68.9879V74.8198H66.5772V72.4091ZM66.5772 74.8198H68.9879V77.2305H66.5772V74.8198ZM66.5772 77.2305H68.9879V79.6412H66.5772V77.2305ZM64.1665 77.2305H66.5772V79.6412H64.1665V77.2305ZM64.1665 74.8198H66.5772V77.2305H64.1665V74.8198ZM61.7558 72.4091H64.1665V74.8198H61.7558V72.4091ZM59.3451 72.4091H61.7558V74.8198H59.3451V72.4091ZM56.9344 72.4091H59.3451V74.8198H56.9344V72.4091ZM54.5236 72.4091H56.9344V74.8198H54.5236V72.4091ZM54.5236 74.8198H56.9344V77.2305H54.5236V74.8198ZM54.5236 77.2305H56.9344V79.6412H54.5236V77.2305ZM52.1129 77.2305H54.5236V79.6412H52.1129V77.2305ZM52.1129 74.8198H54.5236V77.2305H52.1129V74.8198ZM52.1129 72.4091H54.5236V74.8198H52.1129V72.4091ZM52.1129 69.9984H54.5236V72.4091H52.1129V69.9984ZM52.1129 67.5877H54.5236V69.9984H52.1129V67.5877ZM52.1129 65.1769H54.5236V67.5877H52.1129V65.1769ZM78.6371 67.5877H81.0478V69.9984H78.6371V67.5877ZM78.6371 65.1769H81.0478V67.5877H78.6371V65.1769ZM81.0478 65.1769H83.4585V67.5877H81.0478V65.1769ZM81.0478 67.5877H83.4585V69.9984H81.0478V67.5877ZM81.0478 69.9984H83.4585V72.4091H81.0478V69.9984ZM78.6371 69.9984H81.0478V72.4091H78.6371V69.9984ZM78.6371 60.3555H81.0478V62.7662H78.6371V60.3555ZM78.6371 62.7662H81.0478V65.1769H78.6371V62.7662ZM76.2263 65.1769H78.6371V67.5877H76.2263V65.1769ZM76.2263 62.7662H78.6371V65.1769H76.2263V62.7662ZM76.2263 60.3555H78.6371V62.7662H76.2263V60.3555ZM71.4049 55.5341H73.8156V57.9448H71.4049V55.5341ZM73.8156 55.5341H76.2263V57.9448H73.8156V55.5341ZM76.2263 55.5341H78.6371V57.9448H76.2263V55.5341ZM76.2263 57.9448H78.6371V60.3555H76.2263V57.9448ZM73.8156 57.9448H76.2263V60.3555H73.8156V57.9448ZM71.4049 57.9448H73.8156V60.3555H71.4049V57.9448ZM71.4049 60.3555H73.8156V62.7662H71.4049V60.3555ZM73.8156 60.3555H76.2263V62.7662H73.8156V60.3555ZM73.8156 62.7662H76.2263V65.1769H73.8156V62.7662ZM73.8156 65.1769H76.2263V67.5877H73.8156V65.1769ZM71.4049 65.1769H73.8156V67.5877H71.4049V65.1769ZM71.4049 62.7662H73.8156V65.1769H71.4049V62.7662ZM71.4049 67.5877H73.8156V69.9984H71.4049V67.5877ZM73.8156 67.5877H76.2263V69.9984H73.8156V67.5877ZM73.8156 69.9984H76.2263V72.4091H73.8156V69.9984ZM73.8156 72.4091H76.2263V74.8198H73.8156V72.4091ZM73.8156 74.8198H76.2263V77.2305H73.8156V74.8198ZM73.8156 77.2305H76.2263V79.6412H73.8156V77.2305ZM71.4049 77.2305H73.8156V79.6412H71.4049V77.2305ZM71.4049 74.8198H73.8156V77.2305H71.4049V74.8198ZM71.4049 72.4091H73.8156V74.8198H71.4049V72.4091ZM71.4049 69.9984H73.8156V72.4091H71.4049V69.9984ZM81.0478 72.4091H83.4585V74.8198H81.0478V72.4091ZM81.0478 74.8198H83.4585V77.2305H81.0478V74.8198ZM83.4585 72.4091H85.8692V74.8198H83.4585V72.4091ZM83.4585 69.9984H85.8692V72.4091H83.4585V69.9984ZM83.4585 74.8198H85.8692V77.2305H83.4585V74.8198ZM83.4585 77.2305H85.8692V79.6412H83.4585V77.2305ZM85.8692 77.2305H88.2799V79.6412H85.8692V77.2305ZM88.2799 77.2305H90.6906V79.6412H88.2799V77.2305ZM88.2799 74.8198H90.6906V77.2305H88.2799V74.8198ZM88.2799 72.4091H90.6906V74.8198H88.2799V72.4091ZM85.8692 72.4091H88.2799V74.8198H85.8692V72.4091ZM85.8692 74.8198H88.2799V77.2305H85.8692V74.8198ZM85.8692 69.9984H88.2799V72.4091H85.8692V69.9984ZM88.2799 67.5877H90.6906V69.9984H88.2799V67.5877ZM88.2799 65.1769H90.6906V67.5877H88.2799V65.1769ZM88.2799 69.9984H90.6906V72.4091H88.2799V69.9984ZM85.8692 67.5877H88.2799V69.9984H85.8692V67.5877ZM85.8692 65.1769H88.2799V67.5877H85.8692V65.1769ZM85.8692 62.7662H88.2799V65.1769H85.8692V62.7662ZM88.2799 62.7662H90.6906V65.1769H88.2799V62.7662ZM88.2799 60.3555H90.6906V62.7662H88.2799V60.3555ZM85.8692 55.5341H88.2799V57.9448H85.8692V55.5341ZM88.2799 55.5341H90.6906V57.9448H88.2799V55.5341ZM88.2799 57.9448H90.6906V60.3555H88.2799V57.9448ZM85.8692 57.9448H88.2799V60.3555H85.8692V57.9448ZM85.8692 60.3555H88.2799V62.7662H85.8692V60.3555ZM97.9353 55.5341H100.346V57.9448H97.9353V55.5341ZM95.5246 55.5341H97.9353V57.9448H95.5246V55.5341ZM95.5246 57.9448H97.9353V60.3555H95.5246V57.9448ZM97.9353 57.9448H100.346V60.3555H97.9353V57.9448ZM100.346 57.9448H102.757V60.3555H100.346V57.9448ZM100.346 55.5341H102.757V57.9448H100.346V55.5341ZM102.757 55.5341H105.167V57.9448H102.757V55.5341ZM105.167 55.5341H107.578V57.9448H105.167V55.5341ZM105.167 57.9448H107.578V60.3555H105.167V57.9448ZM102.757 57.9448H105.167V60.3555H102.757V57.9448ZM102.757 60.3555H105.167V62.7662H102.757V60.3555ZM105.167 60.3555H107.578V62.7662H105.167V60.3555ZM107.578 57.9448H109.989V60.3555H107.578V57.9448ZM107.578 60.3555H109.989V62.7662H107.578V60.3555ZM107.578 62.7662H109.989V65.1769H107.578V62.7662ZM107.578 65.1769H109.989V67.5877H107.578V65.1769ZM107.578 67.5877H109.989V69.9984H107.578V67.5877ZM107.578 69.9984H109.989V72.4091H107.578V69.9984ZM107.578 72.4091H109.989V74.8198H107.578V72.4091ZM107.578 74.8198H109.989V77.2305H107.578V74.8198ZM105.167 74.8198H107.578V77.2305H105.167V74.8198ZM105.167 72.4091H107.578V74.8198H105.167V72.4091ZM105.167 69.9984H107.578V72.4091H105.167V69.9984ZM105.167 67.5877H107.578V69.9984H105.167V67.5877ZM105.167 65.1769H107.578V67.5877H105.167V65.1769ZM105.167 62.7662H107.578V65.1769H105.167V62.7662ZM102.757 72.4091H105.167V74.8198H102.757V72.4091ZM102.757 74.8198H105.167V77.2305H102.757V74.8198ZM105.167 77.2305H107.578V79.6412H105.167V77.2305ZM102.757 77.2305H105.167V79.6412H102.757V77.2305ZM100.346 77.2305H102.757V79.6412H100.346V77.2305ZM100.346 74.8198H102.757V77.2305H100.346V74.8198ZM97.9353 77.2305H100.346V79.6412H97.9353V77.2305ZM95.5246 77.2305H97.9353V79.6412H95.5246V77.2305ZM95.5246 74.8198H97.9353V77.2305H95.5246V74.8198ZM97.9353 74.8198H100.346V77.2305H97.9353V74.8198ZM95.5246 72.4091H97.9353V74.8198H95.5246V72.4091ZM93.1139 74.8198H95.5246V77.2305H93.1139V74.8198ZM93.1139 72.4091H95.5246V74.8198H93.1139V72.4091ZM93.1139 69.9984H95.5246V72.4091H93.1139V69.9984ZM93.1139 67.5877H95.5246V69.9984H93.1139V67.5877ZM93.1139 65.1769H95.5246V67.5877H93.1139V65.1769ZM93.1139 62.7662H95.5246V65.1769H93.1139V62.7662ZM93.1139 60.3555H95.5246V62.7662H93.1139V60.3555ZM95.5246 60.3555H97.9353V62.7662H95.5246V60.3555ZM93.1139 57.9448H95.5246V60.3555H93.1139V57.9448ZM95.5246 62.7662H97.9353V65.1769H95.5246V62.7662ZM95.5246 65.1769H97.9353V67.5877H95.5246V65.1769ZM95.5246 67.5877H97.9353V69.9984H95.5246V67.5877ZM95.5246 69.9984H97.9353V72.4091H95.5246V69.9984ZM93.1139 77.2305H95.5246V79.6412H93.1139V77.2305ZM93.1139 55.5341H95.5246V57.9448H93.1139V55.5341ZM117.227 55.5341H119.638V57.9448H117.227V55.5341ZM114.817 55.5341H117.227V57.9448H114.817V55.5341ZM114.817 57.9448H117.227V60.3555H114.817V57.9448ZM117.227 57.9448H119.638V60.3555H117.227V57.9448ZM119.638 57.9448H122.049V60.3555H119.638V57.9448ZM119.638 55.5341H122.049V57.9448H119.638V55.5341ZM122.049 55.5341H124.459V57.9448H122.049V55.5341ZM124.459 55.5341H126.87V57.9448H124.459V55.5341ZM124.459 57.9448H126.87V60.3555H124.459V57.9448ZM122.049 57.9448H124.459V60.3555H122.049V57.9448ZM122.049 60.3555H124.459V62.7662H122.049V60.3555ZM124.459 60.3555H126.87V62.7662H124.459V60.3555ZM126.87 57.9448H129.281V60.3555H126.87V57.9448ZM126.87 60.3555H129.281V62.7662H126.87V60.3555ZM126.87 62.7662H129.281V65.1769H126.87V62.7662ZM126.87 65.1769H129.281V67.5877H126.87V65.1769ZM126.87 67.5877H129.281V69.9984H126.87V67.5877ZM126.87 69.9984H129.281V72.4091H126.87V69.9984ZM126.87 72.4091H129.281V74.8198H126.87V72.4091ZM126.87 74.8198H129.281V77.2305H126.87V74.8198ZM124.459 74.8198H126.87V77.2305H124.459V74.8198ZM124.459 72.4091H126.87V74.8198H124.459V72.4091ZM124.459 69.9984H126.87V72.4091H124.459V69.9984ZM124.459 67.5877H126.87V69.9984H124.459V67.5877ZM124.459 65.1769H126.87V67.5877H124.459V65.1769ZM124.459 62.7662H126.87V65.1769H124.459V62.7662ZM122.049 72.4091H124.459V74.8198H122.049V72.4091ZM122.049 74.8198H124.459V77.2305H122.049V74.8198ZM124.459 77.2305H126.87V79.6412H124.459V77.2305ZM122.049 77.2305H124.459V79.6412H122.049V77.2305ZM119.638 77.2305H122.049V79.6412H119.638V77.2305ZM119.638 74.8198H122.049V77.2305H119.638V74.8198ZM117.227 77.2305H119.638V79.6412H117.227V77.2305ZM114.817 77.2305H117.227V79.6412H114.817V77.2305ZM114.817 74.8198H117.227V77.2305H114.817V74.8198ZM117.227 74.8198H119.638V77.2305H117.227V74.8198ZM117.227 72.4091H119.638V74.8198H117.227V72.4091ZM114.817 72.4091H117.227V74.8198H114.817V72.4091ZM112.406 74.8198H114.817V77.2305H112.406V74.8198ZM112.406 72.4091H114.817V74.8198H112.406V72.4091ZM112.406 69.9984H114.817V72.4091H112.406V69.9984ZM112.406 67.5877H114.817V69.9984H112.406V67.5877ZM112.406 65.1769H114.817V67.5877H112.406V65.1769ZM112.406 62.7662H114.817V65.1769H112.406V62.7662ZM112.406 60.3555H114.817V62.7662H112.406V60.3555ZM114.817 60.3555H117.227V62.7662H114.817V60.3555ZM112.406 57.9448H114.817V60.3555H112.406V57.9448ZM117.227 60.3555H119.638V62.7662H117.227V60.3555ZM114.817 62.7662H117.227V65.1769H114.817V62.7662ZM114.817 65.1769H117.227V67.5877H114.817V65.1769ZM114.817 67.5877H117.227V69.9984H114.817V67.5877ZM114.817 69.9984H117.227V72.4091H114.817V69.9984ZM131.698 77.2305H134.109V79.6412H131.698V77.2305ZM131.698 74.8198H134.109V77.2305H131.698V74.8198ZM131.698 72.4091H134.109V74.8198H131.698V72.4091ZM131.698 69.9984H134.109V72.4091H131.698V69.9984ZM131.698 67.5877H134.109V69.9984H131.698V67.5877ZM131.698 65.1769H134.109V67.5877H131.698V65.1769ZM134.109 65.1769H136.519V67.5877H134.109V65.1769ZM134.109 62.7662H136.519V65.1769H134.109V62.7662ZM134.109 60.3555H136.519V62.7662H134.109V60.3555ZM134.109 57.9448H136.519V60.3555H134.109V57.9448ZM131.698 57.9448H134.109V60.3555H131.698V57.9448ZM131.698 55.5341H134.109V57.9448H131.698V55.5341ZM131.698 60.3555H134.109V62.7662H131.698V60.3555ZM131.698 62.7662H134.109V65.1769H131.698V62.7662ZM134.109 55.5341H136.519V57.9448H134.109V55.5341ZM134.109 67.5877H136.519V69.9984H134.109V67.5877ZM134.109 69.9984H136.519V72.4091H134.109V69.9984ZM134.109 72.4091H136.519V74.8198H134.109V72.4091ZM134.109 74.8198H136.519V77.2305H134.109V74.8198ZM134.109 77.2305H136.519V79.6412H134.109V77.2305ZM136.519 60.3555H138.93V62.7662H136.519V60.3555ZM136.519 62.7662H138.93V65.1769H136.519V62.7662ZM138.93 62.7662H141.341V65.1769H138.93V62.7662ZM138.93 65.1769H141.341V67.5877H138.93V65.1769ZM141.341 65.1769H143.751V67.5877H141.341V65.1769ZM141.341 67.5877H143.751V69.9984H141.341V67.5877ZM143.751 65.1769H146.162V67.5877H143.751V65.1769ZM143.751 62.7662H146.162V65.1769H143.751V62.7662ZM146.162 62.7662H148.573V65.1769H146.162V62.7662ZM146.162 60.3555H148.573V62.7662H146.162V60.3555ZM148.573 55.5341H150.984V57.9448H148.573V55.5341ZM148.573 57.9448H150.984V60.3555H148.573V57.9448ZM148.573 60.3555H150.984V62.7662H148.573V60.3555ZM148.573 62.7662H150.984V65.1769H148.573V62.7662ZM148.573 65.1769H150.984V67.5877H148.573V65.1769ZM148.573 67.5877H150.984V69.9984H148.573V67.5877ZM148.573 69.9984H150.984V72.4091H148.573V69.9984ZM148.573 72.4091H150.984V74.8198H148.573V72.4091ZM148.573 74.8198H150.984V77.2305H148.573V74.8198ZM148.573 77.2305H150.984V79.6412H148.573V77.2305ZM150.984 77.2305H153.394V79.6412H150.984V77.2305ZM150.984 74.8198H153.394V77.2305H150.984V74.8198ZM150.984 72.4091H153.394V74.8198H150.984V72.4091ZM150.984 69.9984H153.394V72.4091H150.984V69.9984ZM150.984 67.5877H153.394V69.9984H150.984V67.5877ZM150.984 65.1769H153.394V67.5877H150.984V65.1769ZM150.984 62.7662H153.394V65.1769H150.984V62.7662ZM150.984 60.3555H153.394V62.7662H150.984V60.3555ZM150.984 57.9448H153.394V60.3555H150.984V57.9448ZM150.984 55.5341H153.394V57.9448H150.984V55.5341ZM136.519 57.9448H138.93V60.3555H136.519V57.9448ZM138.93 60.3555H141.341V62.7662H138.93V60.3555ZM141.341 62.7662H143.751V65.1769H141.341V62.7662ZM143.751 60.3555H146.162V62.7662H143.751V60.3555ZM146.162 57.9448H148.573V60.3555H146.162V57.9448ZM58.1554 85.5341H60.5661V87.9448H58.1554V85.5341ZM60.5661 85.5341H62.9768V87.9448H60.5661V85.5341ZM60.5661 87.9448H62.9768V90.3555H60.5661V87.9448ZM60.5661 90.3555H62.9768V92.7662H60.5661V90.3555ZM60.5661 92.7662H62.9768V95.1769H60.5661V92.7662ZM58.1554 90.3555H60.5661V92.7662H58.1554V90.3555ZM58.1554 87.9448H60.5661V90.3555H58.1554V87.9448ZM58.1554 92.7662H60.5661V95.1769H58.1554V92.7662ZM58.1554 95.1769H60.5661V97.5877H58.1554V95.1769ZM58.1554 99.9984H60.5661V102.409H58.1554V99.9984ZM58.1554 97.5877H60.5661V99.9984H58.1554V97.5877ZM60.5661 95.1769H62.9768V97.5877H60.5661V95.1769ZM60.5661 97.5877H62.9768V99.9984H60.5661V97.5877ZM60.5661 99.9984H62.9768V102.409H60.5661V99.9984ZM60.5661 102.409H62.9768V104.82H60.5661V102.409ZM58.1554 102.409H60.5661V104.82H58.1554V102.409ZM58.1554 107.231H60.5661V109.641H58.1554V107.231ZM60.5661 107.231H62.9768V109.641H60.5661V107.231ZM60.5661 104.82H62.9768V107.231H60.5661V104.82ZM58.1554 104.82H60.5661V107.231H58.1554V104.82ZM72.6197 107.231H75.0304V109.641H72.6197V107.231ZM72.6197 104.82H75.0304V107.231H72.6197V104.82ZM72.6197 102.409H75.0304V104.82H72.6197V102.409ZM72.6197 99.9984H75.0304V102.409H72.6197V99.9984ZM72.6197 97.5877H75.0304V99.9984H72.6197V97.5877ZM72.6197 95.1769H75.0304V97.5877H72.6197V95.1769ZM72.6197 85.5341H75.0304V87.9448H72.6197V85.5341ZM70.209 85.5341H72.6197V87.9448H70.209V85.5341ZM70.209 87.9448H72.6197V90.3555H70.209V87.9448ZM70.209 90.3555H72.6197V92.7662H70.209V90.3555ZM70.209 92.7662H72.6197V95.1769H70.209V92.7662ZM72.6197 92.7662H75.0304V95.1769H72.6197V92.7662ZM72.6197 90.3555H75.0304V92.7662H72.6197V90.3555ZM72.6197 87.9448H75.0304V90.3555H72.6197V87.9448ZM70.209 95.1769H72.6197V97.5877H70.209V95.1769ZM70.209 104.82H72.6197V107.231H70.209V104.82ZM70.209 102.409H72.6197V104.82H70.209V102.409ZM70.209 99.9984H72.6197V102.409H70.209V99.9984ZM70.209 97.5877H72.6197V99.9984H70.209V97.5877ZM70.209 107.231H72.6197V109.641H70.209V107.231ZM67.7983 95.1769H70.209V97.5877H67.7983V95.1769ZM65.3875 95.1769H67.7983V97.5877H65.3875V95.1769ZM62.9768 95.1769H65.3875V97.5877H62.9768V95.1769ZM62.9768 97.5877H65.3875V99.9984H62.9768V97.5877ZM65.3875 97.5877H67.7983V99.9984H65.3875V97.5877ZM67.7983 97.5877H70.209V99.9984H67.7983V97.5877ZM77.4474 85.5341H79.8581V87.9448H77.4474V85.5341ZM79.8581 85.5341H82.2688V87.9448H79.8581V85.5341ZM79.8581 87.9448H82.2688V90.3555H79.8581V87.9448ZM79.8581 90.3555H82.2688V92.7662H79.8581V90.3555ZM79.8581 92.7662H82.2688V95.1769H79.8581V92.7662ZM77.4474 92.7662H79.8581V95.1769H77.4474V92.7662ZM77.4474 90.3555H79.8581V92.7662H77.4474V90.3555ZM77.4474 87.9448H79.8581V90.3555H77.4474V87.9448ZM77.4474 95.1769H79.8581V97.5877H77.4474V95.1769ZM77.4474 97.5877H79.8581V99.9984H77.4474V97.5877ZM77.4474 99.9984H79.8581V102.409H77.4474V99.9984ZM79.8581 97.5877H82.2688V99.9984H79.8581V97.5877ZM79.8581 95.1769H82.2688V97.5877H79.8581V95.1769ZM79.8581 99.9984H82.2688V102.409H79.8581V99.9984ZM79.8581 102.409H82.2688V104.82H79.8581V102.409ZM77.4474 104.82H79.8581V107.231H77.4474V104.82ZM77.4474 102.409H79.8581V104.82H77.4474V102.409ZM77.4474 107.231H79.8581V109.641H77.4474V107.231ZM79.8581 107.231H82.2688V109.641H79.8581V107.231ZM79.8581 104.82H82.2688V107.231H79.8581V104.82ZM82.2688 107.231H84.6795V109.641H82.2688V107.231ZM84.6795 107.231H87.0903V109.641H84.6795V107.231ZM87.0903 107.231H89.501V109.641H87.0903V107.231ZM87.0903 104.82H89.501V107.231H87.0903V104.82ZM84.6795 104.82H87.0903V107.231H84.6795V104.82ZM82.2688 104.82H84.6795V107.231H82.2688V104.82ZM82.2688 85.5341H84.6795V87.9448H82.2688V85.5341ZM84.6795 85.5341H87.0903V87.9448H84.6795V85.5341ZM87.0903 85.5341H89.501V87.9448H87.0903V85.5341ZM89.501 85.5341H91.9117V87.9448H89.501V85.5341ZM87.0903 87.9448H89.501V90.3555H87.0903V87.9448ZM84.6795 87.9448H87.0903V90.3555H84.6795V87.9448ZM82.2688 87.9448H84.6795V90.3555H82.2688V87.9448ZM82.2688 97.5877H84.6795V99.9984H82.2688V97.5877ZM84.6795 95.1769H87.0903V97.5877H84.6795V95.1769ZM82.2688 95.1769H84.6795V97.5877H82.2688V95.1769ZM84.6795 97.5877H87.0903V99.9984H84.6795V97.5877ZM89.501 87.9448H91.9117V90.3555H89.501V87.9448ZM89.501 104.82H91.9117V107.231H89.501V104.82ZM89.501 107.231H91.9117V109.641H89.501V107.231ZM87.0903 95.1769H89.501V97.5877H87.0903V95.1769ZM87.0903 97.5877H89.501V99.9984H87.0903V97.5877ZM96.7331 97.5877H99.1438V99.9984H96.7331V97.5877ZM99.1438 97.5877H101.555V99.9984H99.1438V97.5877ZM101.555 97.5877H103.965V99.9984H101.555V97.5877ZM103.965 97.5877H106.376V99.9984H103.965V97.5877ZM99.1438 99.9984H101.555V102.409H99.1438V99.9984ZM96.7331 99.9984H99.1438V102.409H96.7331V99.9984ZM101.555 99.9984H103.965V102.409H101.555V99.9984ZM103.965 99.9984H106.376V102.409H103.965V99.9984ZM106.376 102.409H108.787V104.82H106.376V102.409ZM108.787 99.9984H111.197V102.409H108.787V99.9984ZM106.376 99.9984H108.787V102.409H106.376V99.9984ZM108.787 102.409H111.197V104.82H108.787V102.409ZM106.376 104.82H108.787V107.231H106.376V104.82ZM108.787 104.82H111.197V107.231H108.787V104.82ZM108.787 107.231H111.197V109.641H108.787V107.231ZM106.376 107.231H108.787V109.641H106.376V107.231ZM96.7331 107.231H99.1438V109.641H96.7331V107.231ZM94.3224 107.231H96.7331V109.641H94.3224V107.231ZM94.3224 104.82H96.7331V107.231H94.3224V104.82ZM96.7331 104.82H99.1438V107.231H96.7331V104.82ZM96.7331 102.409H99.1438V104.82H96.7331V102.409ZM94.3224 102.409H96.7331V104.82H94.3224V102.409ZM94.3224 99.9984H96.7331V102.409H94.3224V99.9984ZM94.3224 97.5877H96.7331V99.9984H94.3224V97.5877ZM94.3224 95.1769H96.7331V97.5877H94.3224V95.1769ZM96.7331 95.1769H99.1438V97.5877H96.7331V95.1769ZM94.3224 85.5341H96.7331V87.9448H94.3224V85.5341ZM96.7331 85.5341H99.1438V87.9448H96.7331V85.5341ZM99.1438 85.5341H101.555V87.9448H99.1438V85.5341ZM101.555 85.5341H103.965V87.9448H101.555V85.5341ZM103.965 85.5341H106.376V87.9448H103.965V85.5341ZM106.376 85.5341H108.787V87.9448H106.376V85.5341ZM106.376 87.9448H108.787V90.3555H106.376V87.9448ZM103.965 87.9448H106.376V90.3555H103.965V87.9448ZM101.555 87.9448H103.965V90.3555H101.555V87.9448ZM99.1438 87.9448H101.555V90.3555H99.1438V87.9448ZM96.7331 87.9448H99.1438V90.3555H96.7331V87.9448ZM94.3224 87.9448H96.7331V90.3555H94.3224V87.9448ZM94.3224 90.3555H96.7331V92.7662H94.3224V90.3555ZM94.3224 92.7662H96.7331V95.1769H94.3224V92.7662ZM96.7331 92.7662H99.1438V95.1769H96.7331V92.7662ZM96.7331 90.3555H99.1438V92.7662H96.7331V90.3555ZM106.376 90.3555H108.787V92.7662H106.376V90.3555ZM108.787 90.3555H111.197V92.7662H108.787V90.3555ZM108.787 87.9448H111.197V90.3555H108.787V87.9448ZM108.787 92.7662H111.197V95.1769H108.787V92.7662ZM106.376 92.7662H108.787V95.1769H106.376V92.7662ZM106.376 95.1769H108.787V97.5877H106.376V95.1769ZM108.787 95.1769H111.197V97.5877H108.787V95.1769ZM106.376 97.5877H108.787V99.9984H106.376V97.5877ZM113.614 85.5341H116.025V87.9448H113.614V85.5341ZM116.025 85.5341H118.436V87.9448H116.025V85.5341ZM116.025 87.9448H118.436V90.3555H116.025V87.9448ZM116.025 90.3555H118.436V92.7662H116.025V90.3555ZM116.025 92.7662H118.436V95.1769H116.025V92.7662ZM113.614 92.7662H116.025V95.1769H113.614V92.7662ZM113.614 90.3555H116.025V92.7662H113.614V90.3555ZM113.614 87.9448H116.025V90.3555H113.614V87.9448ZM113.614 95.1769H116.025V97.5877H113.614V95.1769ZM113.614 97.5877H116.025V99.9984H113.614V97.5877ZM113.614 99.9984H116.025V102.409H113.614V99.9984ZM116.025 97.5877H118.436V99.9984H116.025V97.5877ZM116.025 95.1769H118.436V97.5877H116.025V95.1769ZM116.025 99.9984H118.436V102.409H116.025V99.9984ZM116.025 102.409H118.436V104.82H116.025V102.409ZM113.614 104.82H116.025V107.231H113.614V104.82ZM113.614 102.409H116.025V104.82H113.614V102.409ZM113.614 107.231H116.025V109.641H113.614V107.231ZM116.025 107.231H118.436V109.641H116.025V107.231ZM116.025 104.82H118.436V107.231H116.025V104.82ZM118.436 107.231H120.847V109.641H118.436V107.231ZM120.847 107.231H123.257V109.641H120.847V107.231ZM123.257 107.231H125.668V109.641H123.257V107.231ZM123.257 104.82H125.668V107.231H123.257V104.82ZM120.847 104.82H123.257V107.231H120.847V104.82ZM118.436 104.82H120.847V107.231H118.436V104.82ZM118.436 85.5341H120.847V87.9448H118.436V85.5341ZM120.847 85.5341H123.257V87.9448H120.847V85.5341ZM123.257 85.5341H125.668V87.9448H123.257V85.5341ZM125.668 85.5341H128.079V87.9448H125.668V85.5341ZM123.257 87.9448H125.668V90.3555H123.257V87.9448ZM120.847 87.9448H123.257V90.3555H120.847V87.9448ZM118.436 87.9448H120.847V90.3555H118.436V87.9448ZM118.436 97.5877H120.847V99.9984H118.436V97.5877ZM120.847 95.1769H123.257V97.5877H120.847V95.1769ZM118.436 95.1769H120.847V97.5877H118.436V95.1769ZM120.847 97.5877H123.257V99.9984H120.847V97.5877ZM125.668 87.9448H128.079V90.3555H125.668V87.9448ZM125.668 104.82H128.079V107.231H125.668V104.82ZM125.668 107.231H128.079V109.641H125.668V107.231ZM123.257 95.1769H125.668V97.5877H123.257V95.1769ZM123.257 97.5877H125.668V99.9984H123.257V97.5877Z" fill="#001925"/>
</svg>
