<svg width="34" height="34" viewBox="0 0 34 34" fill="none" xmlns="http://www.w3.org/2000/svg">
<rect width="34" height="34" fill="#D9D9D9"/>
<path fill-rule="evenodd" clip-rule="evenodd" d="M6 4.4V23.4C6 23.8 6.1 24.1 6.2 24.4C6.4 24.7 6.6 25 6.9 25.2L15.9 32.4C16.2 32.7 16.6 32.8 17 32.8C17.4 32.8 17.8 32.7 18.1 32.4L27.1 25.2C27.4 25 27.6 24.7 27.8 24.4C28 24.1 28 23.7 28 23.4V4.4C28 3.8 27.7 3.2 27.3 2.7C26.9 2.2 26.3 2 25.6 2H8.4C7.7 2 7.1 2.2 6.7 2.7C6.3 3.1 6 3.7 6 4.4Z" fill="#004DE5"/>
<path d="M23.4 13V8.80001C23.4 8.30001 23.2 7.70001 22.8 7.30001C22.4 6.90001 21.9 6.70001 21.3 6.70001H12.6C12.1 6.80001 11.6 7.00001 11.2 7.40001C10.8 7.80001 10.6 8.30001 10.6 8.80001V20.8C10.6 21.1 10.7 21.4 10.8 21.7C10.9 22 11.1 22.2 11.4 22.4L14.5 25L14.6 25.1H14.7L14.8 25V24.9V16.4C14.8 16.3 14.8 16.3 14.9 16.2C14.9 16.2 15 16.1 15.1 16.1H17.4C17.8 16.1 18.2 16.3 18.5 16.6C18.8 16.9 19 17.3 19 17.7V24.9V25L19.1 25.1H19.2C19.2 25.1 19.3 25.1 19.3 25L22.5 22.4C22.7 22.2 22.9 22 23.1 21.7C23.2 21.4 23.3 21.1 23.3 20.8V17.1C23.3 16.6 23.1 16 22.7 15.6C22.3 15.2 21.8 15 21.2 15C21.7 15 22.3 14.8 22.6 14.4C23.2 14.1 23.4 13.5 23.4 13ZM17.5 14H15.2C15.1 14 15.1 14 15 13.9C15 13.9 14.9 13.8 14.9 13.7V9.10001C14.9 9.00001 15 9.00001 15 8.90001C15 8.90001 15.1 8.80001 15.2 8.80001H18.8C18.9 8.80001 18.9 8.80001 19 8.90001C19 8.90001 19.1 9.00001 19.1 9.10001V12.5C19.1 12.9 18.9 13.3 18.6 13.6C18.3 13.9 17.9 14 17.5 14Z" fill="url(#paint0_linear_17_8)"/>
<defs>
<linearGradient id="paint0_linear_17_8" x1="17.0001" y1="6.76661" x2="17.0001" y2="25.0999" gradientUnits="userSpaceOnUse">
<stop stop-color="white"/>
<stop offset="0.4583" stop-color="white"/>
<stop offset="1" stop-color="white"/>
</linearGradient>
</defs>
</svg>
